<?xml version="1.0" encoding="UTF-8" standalone="no"?>
<!-- Generator: Adobe Illustrator 21.0.0, SVG Export Plug-In . SVG Version: 6.00 Build 0)  -->

<svg
   xmlns:dc="http://purl.org/dc/elements/1.1/"
   xmlns:cc="http://creativecommons.org/ns#"
   xmlns:rdf="http://www.w3.org/1999/02/22-rdf-syntax-ns#"
   xmlns:svg="http://www.w3.org/2000/svg"
   xmlns="http://www.w3.org/2000/svg"
   xmlns:sodipodi="http://sodipodi.sourceforge.net/DTD/sodipodi-0.dtd"
   xmlns:inkscape="http://www.inkscape.org/namespaces/inkscape"
   version="1.1"
   id="Capa_1"
   x="0px"
   y="0px"
   viewBox="0 0 390 532"
   style="enable-background:new 0 0 390 532;"
   xml:space="preserve"
   sodipodi:docname="mapa.svg"
   inkscape:version="0.92.2 (5c3e80d, 2017-08-06)"><metadata
     id="metadata103"><rdf:RDF><cc:Work
         rdf:about=""><dc:format>image/svg+xml</dc:format><dc:type
           rdf:resource="http://purl.org/dc/dcmitype/StillImage" /></cc:Work></rdf:RDF></metadata><defs
     id="defs101" /><sodipodi:namedview
     pagecolor="#ffffff"
     bordercolor="#666666"
     borderopacity="1"
     objecttolerance="10"
     gridtolerance="10"
     guidetolerance="10"
     inkscape:pageopacity="0"
     inkscape:pageshadow="2"
     inkscape:window-width="1920"
     inkscape:window-height="1052"
     id="namedview99"
     showgrid="false"
     inkscape:zoom="5.0188632"
     inkscape:cx="92.155505"
     inkscape:cy="438.13076"
     inkscape:window-x="1366"
     inkscape:window-y="0"
     inkscape:window-maximized="1"
     inkscape:current-layer="Capa_1" /><style
     type="text/css"
     id="style2">

</style><g
     id="g8"><path
       class="relleno"
       d="M383.1,351.7l-1.1-1.3l-1.6-0.7l0.4-3.1l-1.4-1.6l-0.9-1.9l0.5-1.7l-0.8-0.8l-0.1-1.4l-1.9-1l-0.1-1.7   l-0.1-1.7l-1.1-0.8l-0.6-1.4l-2-2.1l0.7-1.7l0.4-2l-0.9-1.3l-0.1-1.9l-2.1,1.5l-0.4-2.2l-0.3-1.4l-0.9-1.6l0.5-1.7l-1.1-1.9   l-1.6-0.8l-0.1-1.4l-1.9-1l-1.7-1.3l-0.9-1.9l-1.3,0.1l-1.4-1l-0.3-1.4l-1.5,1.2l-1.1-1.1l-0.1-2.5l-0.9-1.3l-1.3,0.1l-0.6-1.1   l-2.3,1.2l-1.4-1.3l-1.6,0.6l-1.6-1l11-13.2l1.8-0.4l1.8-1.2l0.5-1.7l1.3-0.6l0.7-1.4l-0.3-1.7l-1.9-0.7l-0.3-1.1l-1.4-0.8   l-0.1-2.5l-1.1-0.5l-0.3-1.4l-0.4-2.2l0.9-0.9l-1.2-1.9l-2.1,1.2l-1.4-1l-1.1-1.6l-0.1-1.7l-0.9-1.9l-0.3-0.4l0.4-1.4l-1.1-0.6   l1.5-2.4l-0.5-1.6l-1.2-1.3l0.5-2.6l-0.5-2l-1.7-2.2l-1.2-1.6l-0.8-2.3l0.4-1.9l0.8-1.9l-0.3-2.8l-0.3-1.8l0.8-1.4l-0.5-2.1   l1.1-1.2l-0.7-1.3l0.6-1.7l-1-1.3l0.4-1.2l-1.6-0.9l-0.1-1.4l1.7-1.2l1-1.7l1.5-1.5l1.3-1.5l0.8-1.4l-0.5-1.8l-0.7-1.6l0.8-1.7   l-0.5-1.8l1.2-2.8l1-1.4l1.2-2.1l1.7-1.5l-0.3-1.8l-1.6-0.6l-0.8-1.8l0.8-1l-1.4-1.3l-1.8-1.1l-2,0.1l-1.5,0.3l-2.3,0.8l-1.7,1   l-2-0.4l-2-1l-1.7,0.1l-1.9,1l-0.8,1.2l-2.4,0.3l-2-0.8l-1.9,1l-1.5,1l-3.6-0.7l-4.6,1.4l-1.6-0.6l-2.9-1l-2.8,0.1l-2.8-0.1   l-2.6-0.3l-2-0.1l-0.8,1.6l-1.4,1.7l-1.9,1l-1.6-0.8l-1-1.5l-1,1.2l-1.7-0.1l-21.7-26.4l-3.3,0.2l-1.5,1l-1.7,0.1l-1.8-1.5   l-2.4-0.3l-1.8-0.6l-1.4-1.5l-1.9,0.5l-1.8-1.3l-0.6,2.1l-1.4-1.3l-2.4,0.3l-1.5,0.8l-1.3,1l-1.7,0.5l-1.7,1l-2-0.6l-1.6-1.1   l-2.8,0.6l-1.6-0.6l-1.7,0.8l-2-0.3l-2.4-1l-2.8,1l-1.6-1.1l-2.1,1l-1.8-1.5l-1.7,0.8l-1.3,1.2l-2.8-0.3l-1.7,0.3l-1.7-0.2   l-2.9-5.7l-1.6-2l0.8-1.6l-1-1.8l-1.8-0.1l-3,0.1l-2.2-0.3l0.3-1.8l-2.7-1.5l0.8-1.4l-1-2.2l0.6-1.8l-0.5-2.2l0.8-2.3L201,150   l0.1-2.9l1.5-1l1.2-1.9l-0.9-1.3l1.2-1.9l0.3-1.8l-0.5-2.2l-0.7-2l-8.6-8.2l-2.4-9.6l-0.7-5.2l-1.8-0.8l-2-0.8l-1,1.2l-1.7,0.5   l-0.9-1.8l1.2-1l-0.9-1.5l-1.4-2.4l-1.9,1.9l-1.5,1.2l-2.3,1l-2.6,1l-2.8-0.3l1.3-0.5l1.2-1.6l-0.1-1.6l1-2.5l1.2-3.2l1.6-2.3   l2.1-1.2l1.8-2.8l0.7-2.5l1-1.6l1.2-1.9l-2-1.5l0.5-2.3l1.1-3.5l0.3-2.5l-0.3-2.5l1-1.9l1.4-1.7l0.6-1.4l1.2-1.6l0.1-1.4l-0.1-1.4   l1.2-1.4l0.8-1.4l0.8-1.6l1-2.8l0.8-2.1l0.8-1.9l1.2-1.6l0.1-1.6l2.1-2.1l2.3-1.7l2.8-0.6l1.4-1.7l1.4-2.3l2.6-4.9l1-1.9l1.2-2.1   l0.6-1.6l1.4-1.7l2.4-0.8l4.1-0.9l2.3-1.2l3.6-1.1l2.4-0.6l2.5-1.9l1.2-2.3l2.8-1.5l2.1-1.9l-0.1-2l-1.4-2.6l-1.2-2.2l-2-1.9   L228.3,9l-3.5-1.2l-2.9-1.4l-2-0.6L217.3,6L216,7.6l1.4,1.7l-0.8,1.9l-2.8-0.6l-1.5,1.4l1.4,2.2l-0.8,1.8l-2.6,0.1l-1.2-2l-2-0.4   l-1.5,1l-0.2,4.1l-1.6,3.5l-1,2.1l-2.5,1.3l-1.5,1l-1,1.6l-2.5,1.3l-2.4-0.6l-1.9,0.3l-1.3,1l-1.9,0.3l-2.3,1.5l-2.1,1.7l-1.4,2.1   l-2.4,0.8l-1.7,1.4l-0.1,1.8l-2.4,0.3l-1.4,1.9l-1.9,1.4l-2.1,0.6l-3.7,0l-2.6,0.3l-1.7,0.5l-2.8,0.4l-2-0.1l-2.4-0.3l-2.9-0.8   l-2-0.3l-1.5-0.4l-1.7,0.1l-0.6,1.8l-1.1,0.5l-0.8,1.6l0.1,2.7l0.4,3.2l-2.1,1l-3.7,0.6l-3.1-0.5l-2.2-0.3l-2.8-0.5l-1,1.4l-1.5,1   l-1.2-2l-2.2-0.1l-2.8,0.6l-1.7,1.4l-1.2,1.6l-1.5,0.5l-0.4,1.1l-1.9,0.8l-2,0.1l-1,1.6l-0.1,1.8l-2.4,0.8l-1.9,1.4l-1.4,1.7   l-1.4,2.1l-0.1,2.9l-0.1,1.6l0.7,1.1l-0.4,1.4l0.3,2.2l0.5,2l1.4,1.7l1.6,1.3l-2.1,1.2l-1.5,0.5l0.1-2l-1.1-0.9l-1,1.6l0.1,2.5   l-0.7,3l-0.3,2.7l-1.2,2.1l1.4,1.7l1.2,1.5l0.8,2.5l0.1,2l-1.9,1.5l-2.5,1.7l-1.8-0.6l-2.2-0.1l-2.6,0.6l-1.5,0.5l-1.7,0.8   l-1.9,1.2l-0.1,1.8l-1.3,1.2l-1.7,1.4l0.1,2.3l-1.7,1.7l-1,1l-0.6,1.8l-1.9,1l-0.3,1.8l-1.3,1l-1.3,1l-1.7,1.2l-1.7,1.2l-1.9,1.4   l-1.5,1.2l-0.4,1.6l-1.5-0.2l-2.8,0.4l-1.9,0.5l-1.2,1.7l2.1,1.9l2,1l1.9,2.6l-0.3,2.5l-0.3,2.3l1,2.2l0.1,2l0.4,2.9l-0.8,2.5   l-1.9,1l-2.6-0.5l-0.5-1.1l0.4-1.4l-0.9-1.3l-0.3-1.6l-0.7-1.8l0.6-1.6l-1-2l-2.2-0.1l-1.2-1.3l-1.7-3.5l-2.4-0.8l-1.8-1l-0.3-1.8   l-2.7-2.4l-2,3l0.1,2l1.4,1.5l1.6,2l0.1,2.3l1.4,1.5l1.6,2l0.3,2l0.7,1.6l0.8,2.5l-0.4,1.4l0.1,1.6l-1.7,1l-1.7,0.8l-6.9,10.5   l-1.6-0.6l-1.6-2.4l-1.4-1.5l-1.3,1l0.1,2.9l-0.1,2.3l-2.1,1.2l-0.6,1.2l-1.9,5.5l1.8,1.7l1.8,1.7l2.5,1.7l1.2,2l0.7,1.5l-1.2,1.2   l-0.6,1.8l1.8,0.8l2,0.8l1.4,1.7l0.3,2.7l1.5-1.2l1.7-0.1l1.4,1.3l-0.2,1.4L52,198l-0.1,2.3l0.1,2.5l-1,1l-0.1,1.8l-1.7,0.5   l-0.3,2.3l-0.1,2.3l1.8,1.3l1.2,1.8l0.9,1.5l0.1,1.8l0.9,1.5l0.5,1.8l1.4,1.7l-0.1,2.3l-1.4,2.1l-1.2,2.1l-1,1.2l-2-0.3l-2-0.8   l-0.1,1.6l-1,1.9l1.6,0.6l2.4,0.8l0.1,1.8l0.7,1.8l0.1,2l0.1,2l0.7,2l-0.1,2.7l0.7,1.8l-0.6,2.1l1.7,2.9l-0.5,2.3l1.2,1.5l-0.1,2.7   l0.1,2.7l-0.1,2.5l-0.1,1.8l-1.4,2.1l-1.6,1.9l-2.5,1.5l-0.3,1.8l2.4-0.1l-2.1,1.5l0.1,1.4l1.4,2.4l1.5-0.8l0.3,1.6l1,1.5l1.3,0.8   l0.8-1.9l1.2-1.4l2,0.4l-1.2,1.9l-1.2,1.7l0.7,1.8l1.6,0.6l2.1-1l1.9-1.2c0.5-0.3,1.2-0.1,1.5,0.4c0.5,0.7-0.2,1.9-1,1.9l-0.3,2.3   l-2-0.4l-0.6,1.8l1.4,1.5l-1.1,0.7l-0.4,1.6l-1.5,0.5l-1.9,1.7l-1,1.9l-0.1,2.5l-1.5,0.8l-1,1l-1.5,1.2l-1.2,1.6l-0.3,2.1l-0.8,1.8   l-1.2,1.7l-1.5,1l-2.1,1l1.4,1.1l1.8,1l-0.2,1.4l-1.7,0.3l-0.4,1.6l0.3,1.6l-1.7-0.1l-2.1,1l-0.3,2.1l-0.1,1.6l-1.6-1l-2-0.1   l-1.2,1.6l-2.4,0.6l-1.2-1.3l-1.3,0.3l-0.8,1.4l-1.3-0.2l-0.9-1.3l-1.3,0.3l-0.2,1.1l-0.4,1.8l-0.9-0.4l-0.9-0.4l-1.3,1l0.3,1.6   l-2.2,0.3l-1.7,1.2l-1.4,2.6l-1.4,2.6l-0.8,1.8l-0.3,2.7l0.3,1.1l1,2.2l0.9,1.8l1.4,1.3l0.7,2l1.1,0.6l-0.2,1.4l-0.1,1.6l-1.5,1   l-1.1-0.9l-1.7,0.3l-2.4-0.6l-2.4,0.1l-1.3,0.7l-1.5,1.7L7.9,355l-0.1,1.8l1.2,2l2,0.8l0.3,1.4l1.1,1.1l2.2,1.5l1.4,1.7l1.2,1.3   l2.2,1.3l2.7,1.7l2.6,0.1l1.2,1.5l2.1,2.2l1.8,1.5l2.6,0.3l1.2,1.8l2,1.3l2.7,2.4l4,1.4l3.2-0.2l2.2,0.6l2.2,1.3l1.8,1.5l1.8,1.5   l1.8,1.3l1,2.4l1,2l0.7,1.8l2.4-0.1l2.2,0.6l2,0.6l2.4-0.8l0.9,0.4l0.9,1.3l1.5,0.4l1.8,0.4l1.4,1.1l1.5,0.2l1.7-0.1l1.8,0.6   l-0.3-1.6l2.4,0.1l1.6,0.6l1.4,1.3l1.7-1l1.5-0.1l2-0.1l0.2-4.6l1.5,0.2l0.2-0.9l1-0.7l2,1l1.6,0.8l1.1-0.3l1.4,1.5l1.5,0.4   l1.2,1.8l1.4,1.3l1.2,1.8l2.2,1l3.6,2.3l4.1-0.4l2.3,2.4l1.8,0.4l2,1l1.5-0.1l1.6,0.8l2,0.1l2.3-1.5l1.4,0.8l1.3,0.2l1.1-0.1   l1.8,1.5l1.2,1.5l1.5,0.4l2,0.8l1.6-2.1l1.4,1.5l1,2.4l0.7,1.3l1.6,1.1l1.5,0.2l1.6,1.3l1.2,1.3l1.6,0.6l1.8,0.8l0.9,1.5l0.1,0   l1.3,2.5l0.3,1.6l-1.7,1.2l2,1.3l1.1,0.9l0.9,1.5l-0.8,1.2l0.7,1.3l-0.4,1.6l1.4,1.3l1.7-0.5l1.8,0.6l2.4,1l0.7,1.3l1.3,0.6l1.5-1   l0.7,1.5l0.7,1.8l1.1,0.9l5.5,0.4l1.1,0.9l1.6,1l0.1,1.6l1.4,1.1l-0.4,1.2l1.1,0.9l1.6,1.1l-1,1.6l1.5,0.4l-1.9,1.5l-0.3,1.8   l1.2,1.3l1.3,0.2l1.2,1.5l1.3,0.4l2,0.1l1.3-1l1.3,0.6l0.8-1.4l0.1,1.6l1.7-0.1l-0.1,1.6l1.3,0.4l0.1,1.6l-0.1,1.8l1.4,1.5   l-1.1,0.7l1.2,1.3l-1.3,1l-0.8,1.4l-1.3,0.5l1,2l0.7,1.1l2,0.6l2,0.1l1.5,0.4l-0.2,1.1l0.9,1.5l2.6-0.6l2.8-0.1l0.8-1.6l1,2l1-1.2   l1-1.6l1.3,0.9l1.6,0.8l2.1-0.6l2.2,0.3l1.6,0.8l1.9-0.6l1.7-0.5l1.5,0.1l1.4-2.1l1.7-1.4l2.2,0.6l2-0.1l0.2-1.4l1.3-0.5l0.4-1.4   l0.6-2.1l1.7-0.5l1.5-0.7l0.3,2l2.8-0.6l1.1,0.9l2.2,0.3l0.8,3.4l0.7-3l1,2l1.6,1.5l1.5-0.3l1.9-0.8l1.1,0.6l1.9-0.5l0.6-1.8   l0.4-1.4l1.7,0.1l2.4,0.6l-0.3-2.7l1.8,1.3l1.7-0.8l1.6,1.1l0.3,1.4l1.5-0.3l1.4,1.3l2,0.4l0.7,1.6l0.3,1.8l1.7,0.1l0.6-1.6   l1.6,1.1l1.1-0.7l1.2,2.2l1.5-1l1.6,0.6l-1.5,1.2l1.3,0.6l2.3-1.2l0.5,1.6l0.3,1.6l1.5-0.3l-0.1,2l2.3-1.9l0.8,3.1l-19.8,31.8   l1.8,0.6l2.6-0.4l1.8,0.1l2.4,0.8l1.5-1.7l1.5-1.4l2,0.6l0.7,1.3l1.4,1.5l1.1,0.9l2,0.6l0.9,1.1l0.1,2l0.3,1.3l1.6,0.8l0.5,2   l1.3,1.1l14.3-80l-0.3-1.6l0.8-2.5l0.6-2.1l-0.5-1.8l0.1-2.5l0.9-2.8l-1.2-1.5l0.1-1.6l-1.4-1.1l-2-0.8l0.6-1.4l-1.6-1.3l-1.2-1.8   l-0.7-1.8l0.8-0.9l1-1.6l-1.1-0.6l-0.1-1.8l0.1-2l-1.8-0.8l-2-1l-1.8-1.3l-1.8-1.1l-2.2-0.3l-2-1.7l-1.2-2.2l-0.5-2l-0.1-20.9   l2.4-0.6l1-1l2.2,0.4l2-0.1l1.5-1.2l1.5-1.4l1.6,0.8l2.3-1.7l0.8-1.2l1.5,0.4l2,1.3l2.6-0.1l0.9,1.1l1.3,0.6l1.2-1.4l2.2-0.1   l-1-1.8l-1.1-1.1l1.2-1.2l-0.5-1.8l1.3-0.7l-1.8-1l0.4-1.6l-0.7-1.3l-1.6-1.5l-2-0.4l-2-1l-1,1.9l-1.8-1.5l-1,1.2l-1.7-0.1   l-0.5-1.3l-1.7-0.1l-1.5,1l-0.9-1.3l-1.1,0.3l-1,1.2l-1.5,0.3l-0.1-19.7l1.7-0.1l0.8-1.2l2.2-0.1l2-0.1l1.5-1.2l1.8,0.4l1.3,0.8   l2.2,0.1l39.7-1.7l-1.8-1.5l-0.3-1.3l-1.1-0.6l0.6-1.8l1.4-2.1l1.7-0.3l1.6,1.1l0.8,2.2l1,2l1.8,1l2.2,0.3l-1-1.1l-0.6-2.5l1.9-1.5   l2.1-0.6l3.2-4.7l2.6-2.1l2.3-2.3l2.6-0.7l2.4,1.3l1.2,2.7l1.2,3.8l1.4,2.4l2.7,1.8l1,3.6l0.4,2.7l2,2.7l1,3.5l-0.7,2.8l0.4,2.2   l0.4,1.9l2.6,0.1l2.4-0.7l2.4,0.2l-1.2-3L383.1,351.7z"
       id="path4" /><path
       class="limites"
       d="M287.1,525c-0.2,0-0.4-0.1-0.6-0.2l-1.4-1.1c-0.2-0.1-0.3-0.3-0.3-0.5l-0.4-1.6l-1.2-0.6   c-0.3-0.1-0.4-0.4-0.5-0.7l-0.3-1.3c0-0.1,0-0.1,0-0.2l-0.1-1.7l-0.5-0.6l-1.7-0.5c-0.1,0-0.2-0.1-0.3-0.2l-1.1-0.9   c0,0-0.1-0.1-0.1-0.1l-1.4-1.5c-0.1-0.1-0.1-0.1-0.1-0.2l-0.5-1l-1-0.3l-1,1l-1.4,1.6c-0.3,0.3-0.7,0.4-1.1,0.3l-2.3-0.8l-1.5-0.1   l-2.5,0.3c-0.2,0-0.3,0-0.5,0l-1.8-0.6c-0.3-0.1-0.5-0.3-0.6-0.6s-0.1-0.6,0.1-0.9l19.6-31.4l-0.3-1.2l-1.1,0.9   c-0.3,0.3-0.7,0.3-1.1,0.1c-0.4-0.2-0.6-0.6-0.5-1l0-0.8l-0.3,0c-0.3,0-0.5,0-0.8-0.2c-0.2-0.2-0.4-0.4-0.4-0.6l-0.4-1.9l-1.3,0.7   c-0.3,0.1-0.6,0.2-0.9,0l-1.3-0.6c-0.3-0.1-0.5-0.4-0.6-0.8c0,0,0-0.1,0-0.1l0,0c-0.2,0.2-0.5,0.2-0.8,0.1   c-0.3-0.1-0.5-0.2-0.6-0.5l-0.7-1.2l-0.1,0.1c-0.3,0.2-0.8,0.2-1.1,0l-0.5-0.3l-0.1,0.4c-0.2,0.4-0.6,0.7-1,0.7l-1.7-0.1   c-0.5,0-0.8-0.4-0.9-0.8l-0.3-1.7l-0.4-1l-1.5-0.3c-0.2,0-0.4-0.1-0.5-0.3l-1-0.9l-1,0.2c-0.5,0.1-1.1-0.2-1.2-0.8l-0.2-1l-0.8-0.5   l-1.2,0.5c-0.3,0.1-0.7,0.1-0.9-0.1l0.1,0.5c0,0.3-0.1,0.6-0.3,0.9c-0.2,0.2-0.6,0.3-0.9,0.2l-2.3-0.5l-0.8-0.1l-0.2,0.6l-0.6,1.9   c-0.1,0.3-0.4,0.6-0.7,0.7l-1.9,0.5c-0.3,0.1-0.5,0-0.8-0.1l-0.7-0.4l-1.5,0.6c-0.1,0-0.1,0-0.2,0.1l-1.5,0.3   c-0.3,0.1-0.6,0-0.9-0.3l-1.5-1.5l-0.1,0.4c-0.1,0.4-0.5,0.8-1,0.8c0,0,0,0,0,0c-0.5,0-0.9-0.3-1-0.8l-0.6-2.7l-1.5-0.2   c-0.2,0-0.3-0.1-0.5-0.2l-0.8-0.6l-2.3,0.5c-0.3,0.1-0.5,0-0.8-0.2c-0.2-0.2-0.4-0.4-0.4-0.7l-0.1-0.7l-0.3,0.1c0,0-0.1,0-0.1,0.1   l-1.2,0.4l-0.8,2.9c-0.1,0.3-0.3,0.5-0.6,0.7l-0.7,0.3l-0.1,0.8c-0.1,0.5-0.5,0.9-0.9,0.9l-2,0.1c-0.1,0-0.2,0-0.3,0l-1.7-0.4   l-1.2,1l-1.3,2c-0.2,0.3-0.6,0.5-0.9,0.4l-1.3-0.1l-3.5,1c-0.3,0.1-0.5,0-0.7-0.1l-1.4-0.8l-1.8-0.3l-1.9,0.5   c-0.2,0.1-0.5,0-0.7-0.1l-1.6-0.8l-0.5-0.3l-0.5,0.8c0,0-0.1,0.1-0.1,0.1l-1,1.2c-0.2,0.3-0.6,0.4-0.9,0.3c-0.3,0-0.6-0.3-0.8-0.6   l-0.1-0.2c-0.2,0.2-0.4,0.3-0.7,0.4l-2.7,0.1l-2.5,0.6c-0.4,0.1-0.8-0.1-1.1-0.5l-0.9-1.5c-0.1-0.2-0.2-0.4-0.1-0.7l0-0.2l-0.6-0.1   l-1.9-0.1c-0.1,0-0.1,0-0.2,0l-2-0.6c-0.2-0.1-0.4-0.2-0.6-0.4l-0.7-1.1c0,0,0-0.1-0.1-0.1l-1-2c-0.1-0.2-0.1-0.5,0-0.8   s0.3-0.5,0.6-0.6l1-0.4l0.6-1.1c0.1-0.1,0.2-0.2,0.3-0.3l0.4-0.3l-0.4-0.5c-0.2-0.2-0.3-0.5-0.2-0.8s0.2-0.5,0.4-0.7l0.1-0.1   l-0.6-0.7c-0.2-0.2-0.3-0.5-0.3-0.7l0.1-1.8l0-0.8l-0.6-0.2c-0.5-0.1-0.8-0.6-0.7-1.1l0-0.4l-0.6,0c-0.3,0-0.5-0.1-0.7-0.2   c-0.2,0.1-0.5,0-0.7-0.1l-0.8-0.4l-0.8,0.6c-0.2,0.1-0.4,0.2-0.7,0.2l-2-0.1c-0.1,0-0.1,0-0.2,0l-1.3-0.4c-0.2-0.1-0.4-0.2-0.5-0.4   l-0.9-1.2l-0.9-0.1c-0.2,0-0.5-0.1-0.6-0.3l-1.1-1.3c-0.2-0.2-0.3-0.5-0.2-0.8l0.3-1.8c0-0.2,0.2-0.5,0.4-0.6l0.3-0.3   c-0.1-0.1-0.2-0.2-0.3-0.4c-0.1-0.3-0.1-0.6,0.1-0.9l0.5-0.8l-0.8-0.5l-1.2-0.9c-0.3-0.3-0.5-0.7-0.3-1.1l0.2-0.5l-0.8-0.6   c-0.2-0.2-0.4-0.5-0.4-0.7l-0.1-1.1l-1.1-0.8l-0.9-0.7l-5.2-0.4c-0.2,0-0.4-0.1-0.5-0.2l-1.1-0.9c-0.1-0.1-0.3-0.3-0.3-0.4l-1-2.2   l-0.5,0.3c-0.3,0.2-0.7,0.2-1,0.1l-1.3-0.6c-0.2-0.1-0.4-0.2-0.5-0.4l-0.5-1l-2.1-0.9l-1.4-0.5l-1.4,0.4c-0.3,0.1-0.7,0-1-0.2   l-1.4-1.3c-0.3-0.2-0.4-0.6-0.3-0.9l0.3-1.2l-0.5-1c-0.2-0.3-0.2-0.7,0.1-1l0.4-0.6l-0.5-0.8l-1-0.8l-1.9-1.2   c-0.3-0.2-0.5-0.5-0.5-0.8c0-0.3,0.1-0.7,0.4-0.8l1.2-0.8l-0.1-0.8l-1.1-2c-0.1-0.1-0.2-0.2-0.2-0.3l-0.8-1.3l-1.5-0.7l-1.5-0.6   c-0.2-0.1-0.3-0.2-0.4-0.3l-1.1-1.3l-1.3-1l-1.2-0.1c-0.2,0-0.3-0.1-0.5-0.2l-1.6-1.1c-0.1-0.1-0.2-0.2-0.3-0.4l-0.7-1.3   c0,0,0-0.1,0-0.1l-0.9-2.3l-0.5-0.5l-0.9,1.2c-0.3,0.4-0.8,0.5-1.2,0.3l-1.9-0.8l-1.5-0.4c-0.2-0.1-0.4-0.2-0.6-0.4l-1.1-1.4   l-1.4-1.2l-0.7,0c-0.1,0-0.1,0-0.2,0l-1.3-0.2c-0.1,0-0.3-0.1-0.4-0.1l-0.8-0.5l-1.8,1.1c-0.2,0.1-0.4,0.2-0.6,0.2l-2-0.1   c-0.1,0-0.3,0-0.4-0.1l-1.3-0.7l-1.3,0.1c-0.2,0-0.4,0-0.5-0.1l-1.9-1l-1.6-0.3c-0.2,0-0.4-0.1-0.5-0.3l-2-2l-3.6,0.4   c-0.2,0-0.5,0-0.6-0.2l-3.5-2.3l-2.2-1c-0.2-0.1-0.3-0.2-0.4-0.4l-1.1-1.7l-1.3-1.2c-0.1-0.1-0.1-0.1-0.2-0.2l-1-1.4l-1.2-0.3   c-0.2,0-0.4-0.2-0.5-0.3l-1-1.1l-0.5,0.1c-0.2,0.1-0.5,0-0.7-0.1l-3-1.6l-0.2,0.2l-0.1,0.5c-0.1,0.5-0.6,0.9-1.1,0.8l-0.5-0.1   l-0.2,3.5c0,0.5-0.4,0.9-1,1l-3.2,0.2l-1.5,0.9c-0.4,0.2-0.9,0.2-1.2-0.1l-1.2-1.2l-1.2-0.5l-1,0l0.1,0.3c0.1,0.3-0.1,0.7-0.3,0.9   c-0.3,0.2-0.6,0.3-1,0.2l-1.6-0.5L75,399c0,0-0.1,0-0.1,0l-1.5-0.2c-0.2,0-0.4-0.1-0.5-0.2l-1.2-0.9l-1.5-0.3l-1.6-0.4   c-0.2-0.1-0.4-0.2-0.6-0.4l-0.8-1.1l-0.3-0.1l-2,0.7c-0.2,0.1-0.4,0.1-0.6,0l-2-0.6l-2-0.5l-2.2,0.1c-0.4,0-0.8-0.2-1-0.6l-0.7-1.8   l-0.9-1.9l-0.9-2.2l-1.6-1.1l-3.6-3l-2-1.1l-1.9-0.5l-3.1,0.2c-0.1,0-0.3,0-0.4-0.1l-4-1.4c-0.1,0-0.2-0.1-0.3-0.2l-2.7-2.3l-2-1.2   c-0.1-0.1-0.2-0.2-0.3-0.3l-0.9-1.4l-2.2-0.3c-0.2,0-0.4-0.1-0.5-0.2l-1.8-1.5c0,0-0.1-0.1-0.1-0.1l-2.1-2.2c0,0,0-0.1-0.1-0.1   l-0.9-1.2l-2.1-0.1c-0.2,0-0.3-0.1-0.5-0.2l-2.7-1.7l-2.2-1.2c-0.1-0.1-0.2-0.1-0.3-0.2l-1.2-1.3l-1.3-1.7l-2.1-1.4   c0,0-0.1-0.1-0.1-0.1l-1.1-1.1c-0.1-0.1-0.3-0.3-0.3-0.5l-0.2-0.8l-1.5-0.6c-0.2-0.1-0.4-0.2-0.5-0.4l-1.2-2   c-0.1-0.2-0.2-0.4-0.1-0.6l0.1-1.8c0-0.2,0.1-0.4,0.2-0.6l3.1-3.6c0.1-0.1,0.2-0.2,0.2-0.2l1.3-0.7c0.1-0.1,0.3-0.1,0.5-0.1   l2.4-0.1c0.1,0,0.2,0,0.3,0l2.2,0.5l1.5-0.3c0.3-0.1,0.6,0,0.8,0.2l0.6,0.4l0.5-0.3l0.2-1.8l-0.5-0.3c-0.2-0.1-0.4-0.3-0.5-0.5   l-0.7-1.8l-1.2-1.1c-0.1-0.1-0.1-0.2-0.2-0.3l-0.9-1.8l-1-2.3c0-0.1,0-0.1-0.1-0.2l-0.3-1.1c0-0.1,0-0.2,0-0.3l0.3-2.7   c0-0.1,0-0.2,0.1-0.3l0.8-1.8c0,0,0-0.1,0-0.1l2.8-5.1c0.1-0.1,0.2-0.2,0.3-0.3l1.7-1.2c0.1-0.1,0.3-0.2,0.4-0.2l1.1-0.2l-0.1-0.6   c-0.1-0.4,0.1-0.7,0.4-1l1.3-1c0.3-0.2,0.7-0.3,1-0.1l0.6,0.3l0.1-0.6l0.1-1.1c0.1-0.4,0.4-0.8,0.8-0.8l1.3-0.3   c0.4-0.1,0.8,0.1,1,0.4l0.7,1l0.2,0l0.5-0.8c0.1-0.2,0.4-0.4,0.6-0.5l1.3-0.3c0.4-0.1,0.7,0,1,0.3l0.8,0.9l1.4-0.3l1-1.4   c0.2-0.3,0.5-0.4,0.9-0.4l2,0.1c0.2,0,0.3,0.1,0.5,0.2l0.2,0.1l0.3-2c0.1-0.3,0.3-0.6,0.6-0.7l2.1-1c0.2-0.1,0.3-0.1,0.5-0.1l0.4,0   l-0.1-0.3c0-0.1,0-0.3,0-0.4l0.4-1.6c0.1-0.4,0.4-0.7,0.8-0.8l1-0.2l-1.2-0.7c0,0-0.1,0-0.1-0.1l-1.4-1.1c-0.3-0.2-0.4-0.6-0.4-0.9   c0-0.3,0.3-0.6,0.6-0.8l2.1-1l1.3-0.8l1-1.4l0.7-1.6l0.3-1.9c0-0.2,0.1-0.3,0.2-0.4l1.2-1.6c0-0.1,0.1-0.1,0.2-0.2l1.5-1.2l1-0.9   c0.1-0.1,0.1-0.1,0.2-0.2l1-0.5l0.1-1.9c0-0.2,0-0.3,0.1-0.4l1-1.9c0.1-0.1,0.1-0.2,0.2-0.3l1.9-1.7c0.1-0.1,0.2-0.2,0.3-0.2l1-0.3   l0.2-1.1c0.1-0.2,0.2-0.5,0.4-0.6l0.1-0.1l-0.6-0.7c-0.2-0.3-0.3-0.6-0.2-1l0.6-1.8c0.1-0.5,0.6-0.8,1.1-0.7l1,0.2l0.2-1.3   c0.1-0.5,0.5-0.8,1-0.9c0,0,0.2-0.3,0.1-0.3c-0.1-0.1-0.2-0.1-0.2,0l-1.8,1.2c0,0-0.1,0-0.1,0.1l-2.1,1c-0.2,0.1-0.5,0.1-0.8,0   l-1.6-0.6c-0.3-0.1-0.5-0.3-0.6-0.5l-0.7-1.8c0-0.1,0-0.1-0.1-0.2c-0.1,0.1-0.2,0.1-0.3,0.1c-0.3,0.1-0.6,0-0.8-0.1l-1.3-0.8   c-0.1-0.1-0.2-0.2-0.3-0.3l-1-1.5c-0.1-0.1-0.1-0.2-0.1-0.3l0-0.3l-0.3,0.2c-0.5,0.2-1.1,0.1-1.3-0.4l-1.4-2.4   c-0.1-0.1-0.1-0.3-0.1-0.5l-0.1-1.4c0-0.2,0-0.4,0.1-0.6c-0.1,0-0.1-0.1-0.2-0.2c-0.2-0.2-0.3-0.5-0.2-0.8l0.3-1.8   c0.1-0.3,0.2-0.5,0.5-0.7l2.4-1.4l1.5-1.7l1.2-1.8l0.1-1.6l0.1-2.5l-0.1-2.6l0.1-2.4l-0.9-1.2c-0.2-0.2-0.2-0.5-0.2-0.8l0.5-1.9   l-1.5-2.5c-0.1-0.2-0.2-0.5-0.1-0.8l0.5-1.7l-0.6-1.5c-0.1-0.1-0.1-0.3-0.1-0.4l0.1-2.5l-0.7-1.8c0-0.1-0.1-0.2-0.1-0.3l-0.2-3.9   l-0.7-1.6c0-0.1-0.1-0.2-0.1-0.3l-0.1-1.1l-1.8-0.6l-1.6-0.6c-0.3-0.1-0.5-0.3-0.6-0.6c-0.1-0.3-0.1-0.6,0.1-0.8l0.9-1.7l0.1-1.4   c0-0.3,0.2-0.6,0.5-0.8c0.3-0.2,0.6-0.2,0.9-0.1l1.9,0.8l1.3,0.2L52,228l1.2-2l1.3-1.9l0.1-1.6l-1.2-1.4c-0.1-0.1-0.1-0.2-0.2-0.3   l-0.5-1.7l-0.9-1.4c-0.1-0.1-0.1-0.3-0.1-0.5l-0.1-1.5l-0.8-1.3l-1-1.6l-1.7-1.2c-0.3-0.2-0.4-0.5-0.4-0.9l0.1-2.3l0.3-2.4   c0.1-0.4,0.3-0.7,0.7-0.8l1.1-0.3l0.1-1.1c0-0.3,0.1-0.5,0.3-0.7l0.7-0.6l-0.1-2l0.1-2l-1-1.5c-0.1-0.2-0.2-0.4-0.2-0.7l0.1-0.9   l-0.7-0.7l-1,0l-1.2,1c-0.3,0.2-0.7,0.3-1,0.2c-0.3-0.1-0.6-0.4-0.6-0.8l-0.3-2.4l-1.1-1.3l-1.8-0.7l-1.8-0.8   c-0.5-0.2-0.7-0.7-0.5-1.2l0.6-1.8c0-0.2,0.1-0.3,0.3-0.4l0.7-0.7l-0.4-0.9l-1-1.8l-2.3-1.6c0,0-0.1-0.1-0.1-0.1l-3.6-3.4   c-0.3-0.3-0.4-0.7-0.3-1.1l1.9-5.5c0,0,0-0.1,0.1-0.1l0.6-1.2c0.1-0.2,0.2-0.3,0.4-0.4l1.6-1l0.1-1.7l-0.1-2.8   c0-0.3,0.1-0.6,0.4-0.8l1.3-1c0.4-0.3,1-0.3,1.3,0.1l1.4,1.5c0,0,0.1,0.1,0.1,0.1l1.5,2.2l0.5,0.2l6.5-9.8c0.1-0.2,0.3-0.3,0.4-0.4   l1.7-0.7l1.1-0.7l-0.1-1c0-0.1,0-0.2,0-0.3l0.3-1.1l-0.7-2.1l-0.7-1.5c0-0.1-0.1-0.2-0.1-0.3l-0.3-1.8l-1.4-1.8l-1.3-1.5   c-0.2-0.2-0.2-0.4-0.3-0.6l-0.1-1.9l-1.4-1.7l-1.3-1.5c-0.2-0.2-0.2-0.4-0.3-0.6l-0.1-2c0-0.2,0-0.4,0.2-0.6l2-3   c0.2-0.2,0.4-0.4,0.7-0.4c0.3,0,0.6,0,0.8,0.2l2.7,2.4c0.2,0.2,0.3,0.4,0.3,0.6l0.2,1.3l1.3,0.8l2.3,0.8c0.3,0.1,0.5,0.3,0.6,0.5   l1.6,3.4l0.8,0.9l1.8,0.1c0.4,0,0.7,0.2,0.8,0.6l1,2c0.1,0.2,0.1,0.5,0,0.8l-0.5,1.2l0.6,1.4c0,0.1,0,0.1,0.1,0.2l0.3,1.4l0.8,1.1   c0.2,0.2,0.2,0.5,0.2,0.8l-0.3,1l0.1,0.3l1.8,0.4l1.2-0.6l0.6-1.9l-0.3-2.7l-0.1-1.9l-0.9-2c-0.1-0.2-0.1-0.4-0.1-0.5L68,139   l-1.5-2.1l-1.8-0.9c-0.1,0-0.2-0.1-0.2-0.2l-2.1-1.9c-0.4-0.3-0.4-0.9-0.1-1.3l1.2-1.7c0.1-0.2,0.3-0.3,0.5-0.4L66,130   c0,0,0.1,0,0.1,0l2.8-0.4c0.1,0,0.2,0,0.2,0l0.7,0.1l0.2-0.7c0-0.2,0.2-0.4,0.3-0.6l1.5-1.2l1.9-1.5l5.6-4.1l0.3-1.5   c0.1-0.3,0.2-0.6,0.5-0.7l1.5-0.8l0.4-1.4c0.1-0.2,0.1-0.3,0.3-0.4l1-1l1.3-1.3l-0.1-1.8c0-0.3,0.1-0.6,0.3-0.8l1.7-1.4l0.9-0.9   l0.1-1.4c0-0.3,0.2-0.6,0.5-0.8l1.9-1.2c0,0,0.1-0.1,0.1-0.1l1.7-0.8l1.6-0.6c0,0,0.1,0,0.1,0l2.6-0.6c0.1,0,0.2,0,0.3,0l2.2,0.1   c0.1,0,0.2,0,0.3,0.1l1.3,0.4l2.1-1.4l1.4-1.1l-0.1-1.4l-0.7-2.2l-1.1-1.4l-1.4-1.7c-0.3-0.3-0.3-0.8-0.1-1.1l1.1-1.9l0.3-2.5   c0,0,0-0.1,0-0.1l0.7-2.8l-0.1-2.3c0-0.2,0-0.4,0.1-0.6l1-1.6c0.1-0.2,0.4-0.4,0.7-0.5s0.6,0,0.8,0.2l1.1,0.9   c0.3,0.2,0.4,0.5,0.4,0.9l0,0.5l0.8-0.4l-0.5-0.4c-0.1,0-0.1-0.1-0.2-0.2l-1.4-1.7c-0.1-0.1-0.1-0.2-0.2-0.4l-0.5-2   c0,0,0-0.1,0-0.1l-0.3-2.2c0-0.1,0-0.3,0-0.4l0.3-0.9l-0.5-0.7c-0.1-0.2-0.2-0.4-0.2-0.6l0.1-1.6l0.1-2.9c0-0.2,0.1-0.4,0.2-0.5   l1.4-2.1c0,0,0-0.1,0.1-0.1l1.4-1.7c0-0.1,0.1-0.1,0.1-0.1l1.9-1.4c0.1-0.1,0.2-0.1,0.3-0.2l1.7-0.6l0.1-1.2c0-0.2,0.1-0.3,0.1-0.5   l1-1.6c0.2-0.3,0.5-0.5,0.8-0.5l1.8-0.1l1.3-0.5l0.2-0.7c0.1-0.3,0.3-0.5,0.6-0.6l1.2-0.4l1-1.4c0-0.1,0.1-0.1,0.1-0.2l1.7-1.4   c0.1-0.1,0.3-0.2,0.4-0.2l2.8-0.6c0.1,0,0.2,0,0.3,0l2.2,0.1c0.3,0,0.6,0.2,0.8,0.5l0.6,1.1l0.5-0.3l0.9-1.3c0.2-0.3,0.6-0.5,1-0.4   l2.8,0.5l5.1,0.8l3.4-0.6l1.4-0.6l-0.3-2.4l-0.1-2.8c0-0.2,0-0.3,0.1-0.5l0.8-1.6c0.1-0.2,0.3-0.4,0.5-0.5l0.7-0.3l0.4-1.4   c0.1-0.4,0.5-0.7,0.9-0.7l1.7-0.1c0.1,0,0.2,0,0.3,0l1.5,0.4l1.9,0.3l2.9,0.8l2.4,0.3l1.8,0.1l2.6-0.3l1.6-0.5c0.1,0,0.1,0,0.2,0   l2.6-0.3c0,0,0.1,0,0.1,0l3.6,0l1.8-0.5l1.6-1.2l1.3-1.8c0.2-0.2,0.4-0.4,0.7-0.4l1.6-0.2l0.1-1c0-0.3,0.1-0.5,0.3-0.7l1.7-1.4   c0.1-0.1,0.2-0.1,0.3-0.2l2-0.7l1.2-1.8c0.1-0.1,0.1-0.2,0.2-0.2l2.1-1.7c0,0,0.1,0,0.1-0.1l2.3-1.5c0.1-0.1,0.2-0.1,0.4-0.1   l1.7-0.3l1.1-0.8c0.1-0.1,0.3-0.2,0.5-0.2l1.9-0.3c0.1,0,0.3,0,0.4,0l2.1,0.5l2-1l0.9-1.4c0.1-0.1,0.2-0.2,0.3-0.3l1.5-1   c0,0,0.1,0,0.1-0.1l2.2-1.1L203,22l1.5-3.3l0.2-3.9c0-0.3,0.2-0.6,0.4-0.8l1.5-1c0.2-0.1,0.5-0.2,0.7-0.1l2,0.4   c0.3,0.1,0.5,0.2,0.7,0.5l0.9,1.5l1.4-0.1l0.3-0.8l-1.1-1.8c-0.3-0.4-0.2-0.9,0.1-1.2l1.5-1.4c0.2-0.2,0.6-0.3,0.9-0.3l2.1,0.4   l0.2-0.6l-1-1.3c-0.3-0.4-0.3-0.9,0-1.2l1.2-1.6c0.2-0.2,0.5-0.4,0.7-0.4l2.6-0.1c0.1,0,0.2,0,0.3,0l2,0.6c0.1,0,0.1,0,0.2,0.1   l2.8,1.4l3.5,1.2c0.1,0,0.1,0.1,0.2,0.1l2.7,1.7c0.1,0,0.1,0.1,0.2,0.1l2,1.9c0.1,0.1,0.1,0.2,0.2,0.3l2.6,4.9   c0.1,0.1,0.1,0.3,0.1,0.4l0.1,2c0,0.3-0.1,0.6-0.3,0.8l-2.1,1.9c-0.1,0.1-0.1,0.1-0.2,0.1l-2.5,1.4l-1.1,2   c-0.1,0.1-0.2,0.2-0.3,0.3l-2.5,1.9c-0.1,0.1-0.2,0.1-0.4,0.2l-2.4,0.6l-3.5,1l-2.3,1.2c-0.1,0-0.2,0.1-0.3,0.1l-4,0.9l-2,0.7   l-1.1,1.3l-0.5,1.4c0,0.1,0,0.1-0.1,0.2l-1.2,2.1l-3.6,6.7l-1.4,2.4c0,0-0.1,0.1-0.1,0.1l-1.4,1.7c-0.1,0.2-0.3,0.3-0.5,0.3   l-2.6,0.5l-2.1,1.5l-1.8,1.8l-0.1,1.2c0,0.2-0.1,0.4-0.2,0.5l-1.2,1.5l-0.7,1.7l-0.8,2l-0.9,2.7c0,0,0,0.1,0,0.1l-0.8,1.6l-0.8,1.5   c0,0.1-0.1,0.1-0.1,0.2l-1,1.1l0,1c0,0,0,0.1,0,0.1l-0.1,1.4c0,0.2-0.1,0.4-0.2,0.5l-1.2,1.5l-0.5,1.3c0,0.1-0.1,0.2-0.2,0.3   l-1.4,1.6l-0.8,1.5l0.3,2.2c0,0.1,0,0.2,0,0.3l-0.3,2.5c0,0.1,0,0.1,0,0.2l-1.1,3.5l-0.4,1.6l1.5,1.1c0.4,0.3,0.5,0.9,0.2,1.4   l-2.2,3.4l-0.7,2.4c0,0.1-0.1,0.2-0.1,0.3l-1.8,2.8c-0.1,0.1-0.2,0.2-0.3,0.3l-1.9,1.1l-1.4,2.1l-1.1,3.1l-0.9,2.4l0.1,1.4   c0,0.2-0.1,0.5-0.2,0.6l-0.6,0.9l0,0l2.3-0.9l2.2-1l1.3-1.1l1.8-1.9c0.2-0.2,0.5-0.3,0.8-0.3c0.3,0,0.6,0.2,0.7,0.5l2.4,4   c0.3,0.4,0.2,1-0.2,1.3l-0.6,0.4l0.2,0.3l0.7-0.2l0.9-1c0.3-0.3,0.7-0.4,1.1-0.3l2,0.8l1.8,0.8c0.3,0.1,0.5,0.4,0.6,0.8l0.7,5.1   l2.3,9.3l8.4,8c0.1,0.1,0.2,0.2,0.3,0.4l0.7,2c0,0,0,0.1,0,0.1l0.5,2.2c0,0.1,0,0.3,0,0.4l-0.3,1.8c0,0.1-0.1,0.3-0.1,0.4l-0.8,1.3   l0.5,0.8c0.2,0.3,0.2,0.8,0,1.1l-1.2,1.9c-0.1,0.1-0.2,0.2-0.3,0.3l-1,0.7l-0.1,2.3l0.5,1.6c0.1,0.2,0.1,0.4,0,0.6l-0.7,2l0.5,2   c0,0.2,0,0.4,0,0.5l-0.5,1.5l0.8,1.9c0.1,0.3,0.1,0.6-0.1,0.9l-0.3,0.5l1.8,1c0.4,0.2,0.6,0.6,0.5,1.1l-0.2,0.8l1.1,0.2l2.9-0.1   c0,0,0.1,0,0.1,0l1.8,0.1c0.3,0,0.6,0.2,0.8,0.5l0.9,1.8c0.2,0.3,0.2,0.6,0,0.9l-0.5,1.1l1.2,1.5c0,0.1,0.1,0.1,0.1,0.2l2.6,5.2   l1.1,0.1l1.6-0.3c0.1,0,0.2,0,0.3,0l2.4,0.3l0.9-0.9c0.1-0.1,0.2-0.1,0.3-0.2l1.7-0.8c0.3-0.2,0.8-0.1,1,0.1l1.3,1.1l1.5-0.7   c0.3-0.2,0.7-0.1,1,0.1l1.1,0.8l2.3-0.9c0.2-0.1,0.5-0.1,0.7,0l2.3,1l1.6,0.3l1.4-0.6c0.2-0.1,0.5-0.1,0.8,0l1.3,0.5l2.5-0.5   c0.3-0.1,0.5,0,0.8,0.1l1.5,1l1.4,0.4l1.3-0.8c0.1,0,0.1-0.1,0.2-0.1l1.5-0.5l1.1-0.9c0,0,0.1-0.1,0.2-0.1l1.5-0.8   c0.1-0.1,0.2-0.1,0.3-0.1l2.4-0.3c0.3,0,0.6,0.1,0.8,0.3l0.1,0.1l0.1-0.4c0.1-0.3,0.3-0.6,0.6-0.7s0.6-0.1,0.9,0.1l1.4,1l1.5-0.4   c0.4-0.1,0.8,0,1,0.3l1.2,1.3l1.4,0.5l2.3,0.3c0.2,0,0.4,0.1,0.5,0.2l1.5,1.3l1.1-0.1l1.3-0.8c0.1-0.1,0.3-0.2,0.5-0.2l3.3-0.2   c0.3,0,0.6,0.1,0.8,0.4l21.4,26.1l0.8,0.1l0.7-0.8c0.2-0.2,0.5-0.4,0.8-0.3c0.3,0,0.6,0.2,0.8,0.5l0.8,1.3l0.8,0.5l1.3-0.7l1.2-1.4   l0.7-1.5c0.2-0.4,0.6-0.6,1-0.6l2,0.1l2.7,0.3l2.7,0.1l2.7-0.1c0.1,0,0.3,0,0.4,0.1l4.1,1.5l4.3-1.3c0.2,0,0.3-0.1,0.5,0l3.2,0.6   l1.1-0.7c0,0,0.1,0,0.1-0.1l1.9-1c0.3-0.1,0.6-0.1,0.8,0l1.7,0.7l1.7-0.2l0.6-0.8c0.1-0.1,0.2-0.2,0.4-0.3l1.9-1   c0.1-0.1,0.3-0.1,0.4-0.1l1.7-0.1c0.2,0,0.3,0,0.5,0.1l1.9,1l1.5,0.3l1.4-0.8c0.1,0,0.1-0.1,0.2-0.1l2.3-0.8l1.6-0.4   c0.1,0,0.1,0,0.2,0l2-0.1c0.2,0,0.4,0,0.5,0.1l1.8,1.1c0.1,0,0.1,0.1,0.2,0.1l1.4,1.3c0.4,0.4,0.4,1,0.1,1.4l-0.4,0.5l0.4,0.8   l1.2,0.5c0.3,0.1,0.6,0.4,0.6,0.8l0.3,1.8c0.1,0.3-0.1,0.7-0.3,0.9l-1.6,1.4l-1.1,2c0,0,0,0.1-0.1,0.1l-1,1.3l-1,2.4l0.4,1.5   c0.1,0.2,0,0.5-0.1,0.7l-0.6,1.2l0.5,1.1c0,0,0,0.1,0.1,0.1l0.5,1.8c0.1,0.3,0,0.5-0.1,0.8l-0.8,1.4c0,0.1-0.1,0.1-0.1,0.2   l-1.3,1.5l-1.5,1.4l-1,1.6c-0.1,0.1-0.2,0.2-0.3,0.3l-1.3,0.9l0,0.3l1.1,0.6c0.4,0.2,0.6,0.7,0.5,1.2l-0.2,0.7l0.7,0.9   c0.2,0.3,0.2,0.6,0.1,0.9l-0.4,1.2l0.5,1c0.2,0.4,0.1,0.8-0.1,1.1l-0.7,0.8l0.4,1.5c0.1,0.3,0,0.5-0.1,0.8l-0.6,1.1l0.3,1.5   l0.4,2.8c0,0.2,0,0.4-0.1,0.5l-0.8,1.8l-0.3,1.5l0.6,1.9l2.7,3.7c0.1,0.1,0.1,0.2,0.2,0.3l0.5,2c0,0.2,0,0.3,0,0.5l-0.4,2.1   l0.8,0.9c0.1,0.1,0.2,0.2,0.2,0.4l0.5,1.6c0.1,0.3,0.1,0.6-0.1,0.8l-0.9,1.5l0.2,0.1c0.4,0.2,0.6,0.7,0.5,1.1l-0.2,0.9l0,0   c0.1,0.1,0.1,0.1,0.1,0.2l0.9,1.9c0.1,0.1,0.1,0.2,0.1,0.4l0.1,1.4l0.9,1.2l0.7,0.5l1.5-0.9c0.5-0.3,1.1-0.1,1.4,0.3l1.2,1.9   c0.2,0.4,0.2,0.9-0.2,1.3l-0.5,0.5l0.3,1.7l0.2,0.8l0.6,0.3c0.3,0.2,0.6,0.5,0.6,0.9l0.1,1.9l0.9,0.5c0.2,0.1,0.4,0.3,0.5,0.6   l0.2,0.6l1.4,0.6c0.3,0.1,0.6,0.4,0.6,0.7l0.3,1.7c0,0.2,0,0.5-0.1,0.7l-0.7,1.4c-0.1,0.2-0.3,0.4-0.5,0.5l-0.9,0.4l-0.3,1.2   c-0.1,0.2-0.2,0.4-0.4,0.6l-1.8,1.2c-0.1,0.1-0.2,0.1-0.4,0.1l-1.5,0.3l-10.1,12.1l0.2,0.1l1.1-0.4c0.4-0.1,0.8-0.1,1.1,0.2   l0.9,0.8l1.7-0.9c0.5-0.3,1.1-0.1,1.3,0.4l0.3,0.5l0.7,0c0.4,0,0.7,0.2,0.9,0.5l0.9,1.3c0.1,0.1,0.1,0.3,0.2,0.5l0.1,2.1l0.2,0.2   l0.9-0.7c0.3-0.2,0.6-0.3,0.9-0.2c0.3,0.1,0.6,0.4,0.6,0.7l0.3,1l0.8,0.6l1,0c0.4,0,0.8,0.2,1,0.6l0.8,1.7l1.4,1.1l1.8,1   c0.3,0.2,0.5,0.5,0.5,0.8l0,0.8l1.1,0.5c0.2,0.1,0.3,0.2,0.4,0.4l1.1,1.9c0.1,0.2,0.2,0.5,0.1,0.8l-0.4,1.3l0.7,1.3   c0,0.1,0.1,0.2,0.1,0.3l0.4,2l0.8-0.5c0.3-0.2,0.7-0.2,1-0.1c0.3,0.2,0.5,0.5,0.6,0.9l0.1,1.7l0.7,1.1c0.1,0.2,0.2,0.5,0.1,0.8   l-0.4,2c0,0.1,0,0.1-0.1,0.2l-0.5,1.1l1.5,1.6c0.1,0.1,0.1,0.2,0.2,0.3l0.5,1.1l0.9,0.6c0.3,0.2,0.4,0.5,0.4,0.8l0.1,2.7l1.4,0.7   c0.3,0.2,0.5,0.5,0.5,0.8l0,1l0.5,0.5c0.3,0.3,0.4,0.6,0.3,1l-0.4,1.3l0.7,1.4l1.3,1.5c0.2,0.2,0.3,0.5,0.2,0.8l-0.3,2.3l1,0.4   c0.1,0.1,0.3,0.2,0.3,0.3l1.1,1.3c0.3,0.3,0.3,0.8,0.1,1.2l-1,1.6l1,2.5c0.1,0.3,0.1,0.7-0.1,1c-0.2,0.3-0.5,0.4-0.9,0.4l-2.2-0.1   l-2.2,0.6c-0.1,0-0.2,0-0.3,0l-2.6-0.1c-0.5,0-0.8-0.4-0.9-0.8l-0.7-4.1c0-0.1,0-0.3,0-0.4l0.6-2.5l-0.8-3.1l-1.9-2.5   c-0.1-0.1-0.2-0.3-0.2-0.5l-0.4-2.7l-0.8-3.1l-2.4-1.6c-0.1-0.1-0.2-0.2-0.3-0.3l-1.4-2.4c0-0.1-0.1-0.1-0.1-0.2l-1.2-3.8l-1-2.3   l-1.8-0.9l-2,0.5l-2.1,2.1c0,0-0.1,0.1-0.1,0.1l-2.4,2l-3.1,4.6c-0.1,0.2-0.3,0.3-0.6,0.4l-1.9,0.5l-1.2,0.9l0.4,1.6l0.8,0.9   c0.3,0.3,0.4,0.8,0.2,1.2c-0.2,0.4-0.6,0.6-1,0.5l-2.2-0.3c-0.1,0-0.2-0.1-0.4-0.1l-1.8-1c-0.2-0.1-0.3-0.3-0.4-0.4l-1-2   c0,0,0-0.1,0-0.1l-0.7-1.9l-1-0.6l-0.9,0.2l-1.1,1.6l-0.3,0.9l0.4,0.2c0.2,0.1,0.4,0.4,0.5,0.7l0.2,1l1.5,1.3   c0.3,0.3,0.4,0.7,0.3,1.1s-0.5,0.7-0.9,0.7l-39.7,1.7l-2.3-0.1c-0.2,0-0.3-0.1-0.5-0.1l-1.2-0.7l-1.1-0.2l-1.1,0.9   c-0.2,0.1-0.4,0.2-0.6,0.2l-3.6,0.2l-0.5,0.8c-0.2,0.3-0.5,0.4-0.8,0.4l-0.8,0l0,17.5l0.8-0.9c0.1-0.2,0.3-0.3,0.5-0.3l1.1-0.3   c0.4-0.1,0.8,0.1,1.1,0.4l0.4,0.5l0.7-0.4c0.2-0.1,0.4-0.2,0.6-0.2l1.7,0.1c0.4,0,0.7,0.3,0.9,0.6l0.3,0.7l0.6,0.1l0.7-0.8   c0.4-0.4,1-0.5,1.4-0.1l0.9,0.7l0.4-0.8c0.3-0.5,0.8-0.7,1.3-0.4l1.9,1l1.8,0.3c0.2,0,0.4,0.1,0.5,0.3l1.6,1.5   c0.1,0.1,0.1,0.2,0.2,0.3l0.7,1.3c0.1,0.2,0.1,0.5,0.1,0.7l-0.2,0.9l1.2,0.7c0.3,0.2,0.5,0.5,0.5,0.9c0,0.4-0.2,0.7-0.5,0.9   l-0.6,0.3l0.3,1c0.1,0.4,0,0.7-0.3,1l-0.5,0.5l0.4,0.4c0.1,0.1,0.1,0.2,0.2,0.3l1,1.8c0.2,0.3,0.2,0.7,0,1   c-0.2,0.3-0.5,0.5-0.8,0.5l-1.7,0.1l-1,1.1c-0.3,0.3-0.8,0.4-1.2,0.3l-1.3-0.6c-0.1-0.1-0.3-0.2-0.3-0.3l-0.6-0.7l-2.1,0.1   c-0.2,0-0.4,0-0.6-0.2l-1.9-1.2l-0.7-0.2l-0.4,0.6c-0.1,0.1-0.1,0.2-0.2,0.2l-2.3,1.7c-0.3,0.2-0.7,0.3-1.1,0.1l-0.9-0.5l-0.9,0.9   l-1.5,1.3c-0.2,0.1-0.4,0.2-0.6,0.2l-2,0.1c-0.1,0-0.1,0-0.2,0l-1.7-0.3l-0.7,0.6c-0.1,0.1-0.3,0.2-0.4,0.2l-1.6,0.4l0.1,19.9   l0.5,1.8l1,1.9l1.7,1.4l1.9,0.3c0.1,0,0.2,0.1,0.4,0.1l1.8,1.1l1.8,1.3l2,1l1.7,0.8c0.4,0.2,0.6,0.6,0.6,1l-0.1,2l0.1,1.2l0.6,0.3   c0.2,0.1,0.4,0.4,0.5,0.6c0.1,0.3,0,0.5-0.1,0.8l-1,1.6c0,0-0.1,0.1-0.1,0.1l-0.4,0.5l0.5,1.1l1,1.5l1.5,1.2   c0.3,0.3,0.5,0.8,0.3,1.2l-0.2,0.5l1.1,0.4c0.1,0,0.2,0.1,0.2,0.1l1.4,1.1c0.3,0.2,0.4,0.5,0.4,0.9l-0.1,1.2l0.9,1.2   c0.2,0.3,0.3,0.6,0.1,0.9l-0.9,2.6l-0.1,2.2l0.5,1.6c0.1,0.2,0.1,0.4,0,0.5l-0.6,2.1l-0.7,2.3l0.2,1.3c0,0.1,0,0.2,0,0.4l-14.3,80   c-0.1,0.3-0.3,0.6-0.6,0.8C287.4,525,287.2,525,287.1,525z M284.6,519.4l1.2,0.6c0.2,0.1,0.4,0.4,0.5,0.6l0.3,1.1l13.9-77.8   l-0.3-1.4c0-0.2,0-0.3,0-0.5l1.2-4.3l-0.4-1.5c0-0.1,0-0.2,0-0.3l0.1-2.5c0-0.1,0-0.2,0.1-0.3l0.8-2.3l-0.8-1.1   c-0.2-0.2-0.2-0.4-0.2-0.7l0.1-1.1l-0.8-0.6l-1.9-0.8c-0.2-0.1-0.4-0.3-0.5-0.5c-0.1-0.2-0.1-0.5,0-0.8l0.3-0.7l-1-0.8   c-0.1-0.1-0.1-0.1-0.2-0.2l-1.2-1.8c0-0.1-0.1-0.1-0.1-0.2l-0.7-1.8c-0.1-0.4-0.1-0.8,0.2-1l0.8-0.9l0.4-0.7l-0.2-0.1   c-0.3-0.2-0.5-0.5-0.5-0.8l-0.1-1.8c0,0,0-0.1,0-0.1l0.1-1.4l-1.2-0.5l-2.1-1.1c0,0-0.1,0-0.1-0.1l-1.8-1.3l-1.6-0.9l-2-0.3   c-0.2,0-0.4-0.1-0.5-0.2l-2-1.7c-0.1-0.1-0.2-0.2-0.2-0.3l-1.2-2.2c0-0.1-0.1-0.1-0.1-0.2l-0.5-2c0-0.1,0-0.2,0-0.3l-0.1-20.9   c0-0.5,0.3-0.9,0.8-1l2.1-0.5l0.8-0.8c0.2-0.2,0.5-0.3,0.8-0.3l2.1,0.3l1.5-0.1l1.2-1l1.4-1.4c0.3-0.3,0.8-0.4,1.2-0.2l1,0.5   l1.7-1.2l0.7-1c0.2-0.3,0.7-0.5,1.1-0.4l1.5,0.4c0.1,0,0.2,0.1,0.3,0.1l1.8,1.1l2.3-0.1c0.3,0,0.6,0.1,0.8,0.4l0.8,0.9l0.5,0.2   l0.7-0.9c0.2-0.2,0.4-0.3,0.7-0.3l0.6,0l-0.1-0.2l-1-1c-0.2-0.2-0.3-0.5-0.3-0.7s0.1-0.5,0.3-0.7l0.8-0.8l-0.3-1.2   c-0.1-0.4,0-0.7,0.3-1l-0.3-0.2c-0.4-0.2-0.6-0.7-0.5-1.1l0.3-1.2L307,367l-1.3-1.2l-1.7-0.3c-0.1,0-0.2,0-0.3-0.1l-1.1-0.6l-0.5,1   c-0.1,0.3-0.4,0.5-0.7,0.5c-0.3,0.1-0.6,0-0.8-0.2l-1.1-0.9l-0.4,0.5c-0.2,0.2-0.5,0.4-0.8,0.3l-1.7-0.1c-0.4,0-0.7-0.3-0.9-0.6   l-0.3-0.7l-0.8-0.1l-1.2,0.8c-0.5,0.3-1.1,0.2-1.4-0.3l-0.5-0.7l-0.1,0l-0.8,0.9c-0.1,0.2-0.3,0.3-0.6,0.3l-1.5,0.3   c-0.3,0.1-0.6,0-0.8-0.2c-0.2-0.2-0.4-0.5-0.4-0.8l-0.1-19.7c0-0.5,0.4-1,1-1l1.2-0.1l0.5-0.8c0.2-0.3,0.5-0.4,0.8-0.4l3.8-0.2   l1.2-1c0.2-0.2,0.5-0.3,0.8-0.2l1.8,0.4c0.1,0,0.2,0.1,0.3,0.1l1.1,0.7l1.9,0.1l37-1.6c-0.1-0.1-0.2-0.3-0.2-0.4l-0.2-0.9l-0.7-0.4   c-0.4-0.2-0.6-0.7-0.5-1.2l0.6-1.8c0-0.1,0.1-0.2,0.1-0.3l1.4-2.1c0.2-0.2,0.4-0.4,0.7-0.4l1.7-0.3c0.3,0,0.5,0,0.7,0.2l1.6,1.1   c0.2,0.1,0.3,0.3,0.4,0.5l0.7,2.2l0.8,1.7l1.1,0.6l-0.4-1.9c-0.1-0.4,0.1-0.8,0.4-1l1.9-1.5c0.1-0.1,0.2-0.1,0.4-0.2l1.8-0.5l3-4.4   c0.1-0.1,0.1-0.2,0.2-0.2l2.5-2l2.2-2.3c0.1-0.1,0.3-0.2,0.5-0.3l2.6-0.7c0.2-0.1,0.5,0,0.7,0.1l2.5,1.3c0.2,0.1,0.4,0.3,0.5,0.5   l1.2,2.7l1.2,3.8l1.3,2.1l2.5,1.7c0.2,0.1,0.4,0.3,0.4,0.6l1,3.5c0,0,0,0.1,0,0.1l0.4,2.5l1.8,2.5c0.1,0.1,0.1,0.2,0.2,0.3l1,3.5   c0,0.2,0,0.3,0,0.5l-0.6,2.6l0.5,3.1l1.7,0.1l2.2-0.6c0.1,0,0.2,0,0.3,0l0.8,0.1l-0.6-1.5c-0.1-0.3-0.1-0.6,0.1-0.9l0.9-1.4   l-0.5-0.6l-1.4-0.7c-0.4-0.2-0.6-0.6-0.6-1l0.3-2.6l-1.1-1.2c-0.1-0.1-0.1-0.1-0.2-0.2l-0.9-1.9c-0.1-0.2-0.1-0.5-0.1-0.7l0.3-1.1   l-0.4-0.4c-0.2-0.2-0.3-0.4-0.3-0.7l0-0.8l-1.4-0.7c-0.3-0.2-0.5-0.5-0.5-0.8l-0.1-2.8l-0.7-0.5c-0.1-0.1-0.3-0.2-0.3-0.4l-0.5-1.2   l-1.8-2c-0.3-0.3-0.3-0.7-0.2-1.1l0.7-1.6l0.3-1.5l-0.6-1c-0.1-0.1-0.1-0.3-0.2-0.5l0-0.1l-0.6,0.4c-0.3,0.2-0.6,0.2-1,0.1   c-0.3-0.1-0.5-0.4-0.6-0.8l-0.4-2.2l-0.3-1.2l-0.8-1.5c-0.1-0.2-0.2-0.5-0.1-0.7l0.3-1.3l-0.8-1.2l-1.3-0.6   c-0.3-0.2-0.6-0.5-0.6-0.9l0-0.8l-1.4-0.7c-0.1,0-0.1-0.1-0.1-0.1l-1.7-1.3c-0.1-0.1-0.2-0.2-0.3-0.4l-0.6-1.3l-0.7,0   c-0.2,0-0.5-0.1-0.6-0.2l-1.4-1c-0.2-0.1-0.3-0.3-0.3-0.4l-0.3,0.2c-0.4,0.3-0.9,0.3-1.3-0.1l-1.1-1.1c-0.2-0.2-0.3-0.4-0.3-0.7   l-0.1-2.2l-0.4-0.6l-0.7,0c-0.4,0-0.7-0.2-0.9-0.5l-0.1-0.2l-1.4,0.8c-0.4,0.2-0.8,0.1-1.1-0.2l-0.9-0.9l-1,0.4   c-0.3,0.1-0.6,0.1-0.9-0.1l-1.6-1c-0.2-0.2-0.4-0.4-0.5-0.7s0-0.6,0.2-0.8l11-13.2c0.1-0.2,0.4-0.3,0.6-0.3l1.6-0.3l1.3-0.9   l0.4-1.3c0.1-0.3,0.3-0.5,0.5-0.6l1-0.5l0.4-0.8l-0.2-0.8l-1.4-0.5c-0.3-0.1-0.5-0.4-0.6-0.7l-0.2-0.7l-1-0.6   c-0.3-0.2-0.5-0.5-0.5-0.8l-0.1-1.9l-0.5-0.2c-0.3-0.1-0.5-0.4-0.6-0.7l-0.3-1.4l-0.4-2.3c-0.1-0.3,0.1-0.7,0.3-0.9l0.3-0.3   l-0.2-0.4l-1.2,0.7c-0.3,0.2-0.8,0.2-1.1-0.1l-1.4-1c-0.1-0.1-0.2-0.1-0.2-0.2l-1.1-1.6c-0.1-0.2-0.2-0.3-0.2-0.5l-0.1-1.5   l-0.7-1.6l-0.3-0.3c-0.2-0.3-0.3-0.6-0.2-0.9l0.2-0.6l-0.5-0.3c-0.2-0.1-0.4-0.4-0.5-0.6s0-0.5,0.1-0.8l1.2-2l-0.3-0.9l-1-1.2   c-0.2-0.2-0.3-0.6-0.2-0.9l0.5-2.3l-0.4-1.6l-2.7-3.6c-0.1-0.1-0.1-0.2-0.1-0.3l-0.8-2.3c-0.1-0.2-0.1-0.3,0-0.5l0.4-1.9   c0-0.1,0-0.1,0.1-0.2l0.7-1.6l-0.3-2.5l-0.3-1.8c0-0.2,0-0.5,0.1-0.7l0.6-1.1l-0.4-1.7c-0.1-0.3,0-0.7,0.2-0.9l0.6-0.7l-0.4-0.7   c-0.1-0.3-0.2-0.5-0.1-0.8l0.4-1.2l-0.7-0.9c-0.2-0.3-0.2-0.6-0.1-0.9l0.1-0.4l-0.8-0.5c-0.3-0.2-0.5-0.5-0.5-0.8l-0.1-1.4   c0-0.3,0.1-0.7,0.4-0.9l1.5-1.1l0.9-1.5c0-0.1,0.1-0.1,0.2-0.2l1.5-1.5l1.1-1.3l0.6-1l-0.4-1.3l-0.7-1.5c-0.1-0.3-0.1-0.6,0-0.9   l0.6-1.3l-0.4-1.5c-0.1-0.2-0.1-0.5,0-0.7l1.2-2.8c0-0.1,0.1-0.1,0.1-0.2l1-1.4l1.2-2.1c0.1-0.1,0.1-0.2,0.2-0.3l1.3-1.1l-0.1-0.7   l-1.1-0.4c-0.3-0.1-0.5-0.3-0.6-0.5l-0.8-1.8c-0.1-0.4-0.1-0.8,0.2-1l0.2-0.2l-0.6-0.6l-1.5-0.9l-1.6,0.1l-1.4,0.3l-2.2,0.7   l-1.6,0.9c-0.2,0.1-0.4,0.2-0.7,0.1l-2-0.4c-0.1,0-0.2,0-0.3-0.1l-1.8-0.9l-1.2,0.1l-1.5,0.8l-0.7,1c-0.2,0.2-0.4,0.4-0.7,0.4   l-2.4,0.3c-0.2,0-0.4,0-0.5-0.1l-1.6-0.6l-1.5,0.8l-1.4,0.9c-0.2,0.1-0.5,0.2-0.7,0.1l-3.3-0.7l-4.4,1.3c-0.2,0.1-0.4,0.1-0.6,0   l-1.6-0.6l-2.7-0.9l-2.6,0.1l-2.9-0.1l-2.7-0.3l-1.2-0.1l-0.5,1c0,0.1-0.1,0.2-0.1,0.2l-1.4,1.7c-0.1,0.1-0.2,0.2-0.3,0.2l-1.9,1   c-0.3,0.2-0.6,0.1-0.9,0l-1.6-0.8c-0.2-0.1-0.3-0.2-0.4-0.4l-0.2-0.4l-0.1,0.2c-0.2,0.2-0.5,0.4-0.8,0.3l-1.7-0.1   c-0.3,0-0.5-0.2-0.7-0.4l-21.4-26l-2.5,0.1l-1.3,0.8c-0.1,0.1-0.3,0.2-0.5,0.2l-1.7,0.1c-0.3,0-0.5-0.1-0.7-0.2l-1.6-1.3l-2.1-0.3   c-0.1,0-0.1,0-0.2,0l-1.8-0.6c-0.2-0.1-0.3-0.1-0.4-0.3l-1-1.1l-1.3,0.4c-0.3,0.1-0.6,0-0.8-0.1l-0.6-0.4l-0.2,0.7   c-0.1,0.3-0.4,0.6-0.7,0.7c-0.3,0.1-0.7,0-1-0.2l-1-1l-1.7,0.2l-1.3,0.6l-1.2,0.9c-0.1,0.1-0.2,0.1-0.3,0.2l-1.6,0.5l-1.6,0.9   c-0.2,0.1-0.5,0.2-0.8,0.1l-2-0.6c-0.1,0-0.2-0.1-0.3-0.1l-1.2-0.8l-2.4,0.5c-0.2,0-0.4,0-0.6,0l-1.2-0.5l-1.3,0.6   c-0.2,0.1-0.4,0.1-0.6,0.1l-2-0.3c-0.1,0-0.1,0-0.2-0.1l-2.1-0.9l-2.4,0.9c-0.3,0.1-0.6,0.1-0.9-0.1l-1.1-0.7l-1.6,0.8   c-0.4,0.2-0.8,0.1-1.1-0.1l-1.3-1.1l-1,0.4l-1.1,1.1c-0.2,0.2-0.5,0.3-0.8,0.3l-2.7-0.3l-1.6,0.3c-0.1,0-0.2,0-0.3,0l-1.7-0.2   c-0.3,0-0.7-0.2-0.8-0.5l-2.8-5.6l-1.5-1.9c-0.2-0.3-0.3-0.7-0.1-1.1l0.6-1.2l-0.4-0.8l-1.1-0.1l-3,0.1c-0.1,0-0.1,0-0.2,0   l-2.2-0.3c-0.3,0-0.5-0.2-0.7-0.4c-0.2-0.2-0.2-0.5-0.2-0.8l0.2-1.1l-2-1.1c-0.2-0.1-0.4-0.3-0.5-0.6s0-0.5,0.1-0.8l0.6-1l-0.8-1.8   c-0.1-0.2-0.1-0.5,0-0.7l0.5-1.6l-0.5-2c0-0.2,0-0.4,0-0.5l0.7-2l-0.4-1.5c0-0.1,0-0.2,0-0.3l0.1-2.9c0-0.3,0.2-0.6,0.4-0.8   l1.3-0.9l0.7-1.1l-0.5-0.8c-0.2-0.3-0.2-0.8,0-1.1l1.1-1.7l0.3-1.4l-0.5-2l-0.6-1.7l-8.5-8c-0.1-0.1-0.2-0.3-0.3-0.5l-2.4-9.6   c0,0,0-0.1,0-0.1l-0.6-4.6l-1.3-0.6l-1.3-0.5l-0.6,0.6c-0.1,0.1-0.3,0.2-0.4,0.3l-1.7,0.5c-0.5,0.1-1-0.1-1.2-0.5l-0.9-1.8   c-0.2-0.4-0.1-1,0.3-1.3l0.5-0.4l-1.2-2.1l-0.9,1c0,0-0.1,0.1-0.1,0.1l-1.5,1.2c-0.1,0.1-0.1,0.1-0.2,0.1l-2.3,1l-2.6,1   c-0.2,0.1-0.3,0.1-0.5,0.1l-2.8-0.3c-0.5,0-0.8-0.4-0.9-0.9c-0.1-0.5,0.2-0.9,0.6-1.1l1-0.4l0.8-1.1l0-1.2c0-0.1,0-0.3,0.1-0.4   l1-2.5l1.1-3.2c0-0.1,0.1-0.2,0.1-0.2l1.6-2.3c0.1-0.1,0.2-0.2,0.3-0.3l1.9-1.1l1.6-2.5l0.7-2.4c0-0.1,0.1-0.2,0.1-0.2l1.7-2.7   l-1.3-0.9c-0.3-0.2-0.5-0.6-0.4-1l0.5-2.3l1.1-3.4l0.3-2.3l-0.3-2.4c0-0.2,0-0.4,0.1-0.6l1-1.9c0-0.1,0.1-0.1,0.1-0.2l1.3-1.5   l0.5-1.2c0-0.1,0.1-0.1,0.1-0.2l1.1-1.4l0.1-1l-0.1-1.3c0-0.3,0.1-0.5,0.2-0.7l1.2-1.3l0.8-1.3l0.7-1.5l0.9-2.7l0.8-2.1l0.8-1.9   c0-0.1,0.1-0.1,0.1-0.2l1.1-1.4l0.1-1.3c0-0.2,0.1-0.4,0.3-0.6l2.1-2.1c0,0,0.1-0.1,0.1-0.1l2.3-1.7c0.1-0.1,0.2-0.1,0.4-0.2   l2.5-0.5l1.2-1.3l1.4-2.3l3.6-6.7l1.2-2l0.6-1.5c0-0.1,0.1-0.2,0.2-0.3l1.4-1.7c0.1-0.1,0.3-0.2,0.4-0.3l2.4-0.8c0,0,0.1,0,0.1,0   l3.9-0.8l2.2-1.2c0.1,0,0.1-0.1,0.2-0.1l3.6-1.1l2.2-0.5l2.2-1.7l1.1-2.1c0.1-0.2,0.2-0.3,0.4-0.4l2.6-1.4l1.6-1.5l-0.1-1.3   l-2.4-4.5l-1.9-1.8l-2.5-1.6l-3.4-1.2c0,0-0.1,0-0.1-0.1l-2.8-1.4l-1.7-0.5l-2,0.1l-0.5,0.6l0.9,1.1c0.2,0.3,0.3,0.7,0.1,1   l-0.8,1.9c-0.2,0.4-0.6,0.7-1.1,0.6l-2.3-0.5l-0.5,0.5l1,1.5c0.2,0.3,0.2,0.6,0.1,0.9l-0.8,1.8c-0.2,0.4-0.5,0.6-0.9,0.6l-2.6,0.1   c-0.4,0-0.7-0.2-0.9-0.5l-1-1.6l-1.1-0.2l-0.7,0.5l-0.2,3.6c0,0.1,0,0.2-0.1,0.4l-2.6,5.6c-0.1,0.2-0.3,0.4-0.5,0.5l-2.5,1.2   l-1.2,0.8l-0.9,1.5c-0.1,0.2-0.2,0.3-0.4,0.4l-2.5,1.3c-0.2,0.1-0.4,0.1-0.7,0.1l-2.2-0.5l-1.5,0.2l-1.1,0.8   c-0.1,0.1-0.3,0.2-0.4,0.2l-1.7,0.3L186,33l-1.9,1.6l-1.3,2c-0.1,0.2-0.3,0.3-0.5,0.4l-2.2,0.7l-1.2,1l-0.1,1.4   c0,0.5-0.4,0.9-0.9,0.9l-2,0.3l-1.2,1.6c-0.1,0.1-0.1,0.1-0.2,0.2l-1.9,1.4c-0.1,0.1-0.2,0.1-0.4,0.2l-2.1,0.6c-0.1,0-0.2,0-0.3,0   l-3.6,0l-2.4,0.3l-1.6,0.5c-0.1,0-0.1,0-0.2,0l-2.8,0.4c-0.1,0-0.1,0-0.2,0l-2-0.1l-2.5-0.3c0,0-0.1,0-0.1,0l-2.9-0.8l-1.9-0.3   l-1.5-0.4l-0.9,0l-0.4,1.2c-0.1,0.3-0.3,0.5-0.5,0.6l-0.8,0.4l-0.5,1.1l0.1,2.5l0.4,3.1c0,0.4-0.2,0.8-0.6,1l-2.1,1   c-0.1,0-0.2,0.1-0.3,0.1l-3.7,0.6c-0.1,0-0.2,0-0.3,0l-7.5-1.3l-0.7,0.9c-0.1,0.1-0.2,0.2-0.3,0.2l-1.5,1c-0.2,0.1-0.5,0.2-0.8,0.1   c-0.3-0.1-0.5-0.2-0.6-0.5l-0.9-1.5l-1.5-0.1l-2.4,0.5l-1.4,1.2l-1.2,1.6c-0.1,0.2-0.3,0.3-0.5,0.3l-1,0.4l-0.2,0.7   c-0.1,0.3-0.3,0.5-0.6,0.6l-1.9,0.8c-0.1,0-0.2,0.1-0.3,0.1l-1.4,0.1l-0.6,1l-0.1,1.6c0,0.4-0.3,0.7-0.7,0.9l-2.2,0.7l-1.7,1.3   l-1.3,1.5l-1.2,1.8l-0.1,2.7l-0.1,1.3l0.5,0.8c0.2,0.2,0.2,0.5,0.1,0.8l-0.3,1.2l0.3,2l0.5,1.8l1.2,1.5l1.5,1.2   c0.3,0.2,0.4,0.5,0.4,0.9s-0.2,0.6-0.5,0.8l-2.1,1.2c-0.1,0-0.1,0.1-0.2,0.1l-1.5,0.5c-0.3,0.1-0.7,0.1-0.9-0.1   c-0.2-0.1-0.3-0.3-0.3-0.5l0,0.9c0,0.1,0,0.2,0,0.3l-0.7,2.9l-0.3,2.7c0,0.1-0.1,0.3-0.1,0.4l-0.9,1.5l2.1,2.8   c0.1,0.1,0.1,0.2,0.2,0.3l0.8,2.5c0,0.1,0,0.2,0,0.3l0.1,2c0,0.3-0.1,0.6-0.4,0.8l-1.9,1.5l-2.6,1.7c-0.3,0.2-0.6,0.2-0.9,0.1   l-1.6-0.6l-1.9-0.1l-2.4,0.5l-1.4,0.5l-1.6,0.7l-1.4,0.9l-0.1,1.3c0,0.2-0.1,0.5-0.3,0.7l-1.3,1.2l-1.3,1.2l0.1,1.8   c0,0.3-0.1,0.6-0.3,0.8l-2.5,2.5l-0.5,1.6c-0.1,0.3-0.3,0.5-0.5,0.6l-1.5,0.8l-0.3,1.4c0,0.2-0.2,0.5-0.4,0.6l-2.5,1.9l-3.4,2.4   l-1.9,1.4l-1.2,1l-0.3,1.3c-0.1,0.5-0.6,0.8-1.1,0.8l-1.4-0.1l-2.6,0.3l-1.5,0.4l-0.5,0.7l1.3,1.2l1.9,1c0.1,0.1,0.3,0.2,0.4,0.3   l1.9,2.6c0.1,0.2,0.2,0.5,0.2,0.7l-0.6,4.5l0.9,2c0,0.1,0.1,0.2,0.1,0.4l0.1,2l0.4,2.8c0,0.1,0,0.3,0,0.4l-0.8,2.5   c-0.1,0.3-0.3,0.5-0.5,0.6l-1.9,1c-0.2,0.1-0.4,0.1-0.7,0.1l-2.6-0.5c-0.3-0.1-0.6-0.3-0.7-0.6l-0.5-1.1c-0.1-0.2-0.1-0.4,0-0.7   l0.2-0.9l-0.7-0.9c-0.1-0.1-0.1-0.3-0.2-0.4l-0.3-1.5l-0.7-1.7c-0.1-0.2-0.1-0.5,0-0.7L62,145l-0.5-1.1l-1.6-0.1   c-0.3,0-0.5-0.1-0.7-0.3l-1.1-1.3c-0.1-0.1-0.1-0.1-0.2-0.2l-1.5-3.2l-2-0.7c-0.1,0-0.1-0.1-0.2-0.1l-1.8-1   c-0.3-0.1-0.4-0.4-0.5-0.7l-0.2-1.4l-1.6-1.4l-1.2,1.8l0.1,1.3l1.1,1.3l1.7,2c0.1,0.2,0.2,0.4,0.2,0.6l0.1,1.9l1.1,1.3l1.6,2   c0.1,0.1,0.2,0.3,0.2,0.5l0.3,1.9l0.7,1.4c0,0,0,0.1,0,0.1l0.8,2.5c0.1,0.2,0.1,0.4,0,0.6l-0.3,1.2l0.1,1.4c0,0.4-0.2,0.7-0.5,0.9   l-1.7,1c0,0-0.1,0-0.1,0l-1.4,0.6L46,168.1c-0.3,0.4-0.8,0.6-1.2,0.4l-1.6-0.6c-0.2-0.1-0.4-0.2-0.5-0.4l-1.6-2.4l-0.7-0.8   l-0.1,0.1l0.1,2.4l-0.1,2.4c0,0.3-0.2,0.6-0.5,0.8l-1.9,1.1l-0.4,0.8l-1.7,4.9l3.1,2.9l2.4,1.7c0.1,0.1,0.2,0.2,0.3,0.3l1.2,2   c0,0,0,0.1,0,0.1l0.7,1.5c0.2,0.4,0.1,0.8-0.2,1.1l-1.1,1l-0.2,0.8l1,0.5l2,0.8c0.2,0.1,0.3,0.2,0.4,0.3l1.4,1.7   c0.1,0.1,0.2,0.3,0.2,0.5l0.1,0.9l0.1-0.1c0.2-0.1,0.4-0.2,0.6-0.2l1.7-0.1c0.3,0,0.5,0.1,0.7,0.3l1.4,1.3c0.2,0.2,0.3,0.5,0.3,0.8   l-0.1,1l1,1.4c0.1,0.2,0.2,0.4,0.2,0.6l-0.1,2.3l0.1,2.4c0,0.3-0.1,0.6-0.3,0.8l-0.8,0.7l-0.1,1.4c0,0.4-0.3,0.8-0.7,0.9l-1.1,0.3   l-0.2,1.7l-0.1,1.6l1.4,0.9c0.1,0.1,0.2,0.2,0.3,0.3l1.2,1.8l1,1.6c0.1,0.1,0.1,0.3,0.1,0.5l0.1,1.5l0.8,1.3c0,0.1,0.1,0.2,0.1,0.2   l0.5,1.6l1.3,1.6c0.2,0.2,0.2,0.4,0.2,0.7l-0.1,2.3c0,0.2-0.1,0.4-0.2,0.5l-1.4,2.1l-1.2,2c0,0.1-0.1,0.1-0.1,0.2l-1,1.2   c-0.2,0.3-0.6,0.4-0.9,0.3l-2-0.3c-0.1,0-0.1,0-0.2-0.1l-0.7-0.3l0,0.2c0,0.1-0.1,0.3-0.1,0.4l-0.5,0.9l0.5,0.2l2.4,0.8   c0.4,0.1,0.7,0.5,0.7,0.9l0.1,1.6l0.7,1.6c0,0.1,0.1,0.2,0.1,0.3l0.2,3.9l0.7,1.9c0,0.1,0.1,0.3,0.1,0.4l-0.1,2.5l0.7,1.6   c0.1,0.2,0.1,0.4,0,0.6l-0.5,1.7l1.5,2.5c0.1,0.2,0.2,0.5,0.1,0.7l-0.4,1.8l0.9,1.2c0.1,0.2,0.2,0.4,0.2,0.6l-0.1,2.7l0.1,2.6   l-0.1,2.6l-0.1,1.9c0,0.2-0.1,0.3-0.2,0.5l-1.4,2.1c0,0,0,0.1-0.1,0.1l-1.6,1.9c-0.1,0.1-0.2,0.2-0.3,0.2l-2.2,1.2l0,0.1l1.1-0.1   c0.4,0,0.9,0.3,1,0.7c0.1,0.4,0,0.9-0.4,1.1l-1.6,1.2l0,0.6l0.8,1.4l0.6-0.3c0.3-0.1,0.6-0.1,0.9,0c0.3,0.1,0.5,0.4,0.5,0.7   l0.3,1.4l0.7,1.2l0.1,0.1l0.3-0.8c0-0.1,0.1-0.2,0.2-0.3l1.2-1.4c0.2-0.3,0.6-0.4,0.9-0.3l2,0.4c0.3,0.1,0.6,0.3,0.7,0.6   c0.1,0.3,0.1,0.7-0.1,0.9l-1.2,1.9l-0.9,1.2l0.4,0.9l0.8,0.3l1.7-0.8l1.8-1.2c1.1-0.6,2.2-0.3,2.9,0.6c0.4,0.6,0.5,1.5,0.1,2.2   c-0.2,0.4-0.6,0.8-1,1l-0.2,1.6c0,0.3-0.2,0.5-0.4,0.7c-0.2,0.2-0.5,0.2-0.8,0.2l-1.1-0.2l-0.1,0.4l1,1.1c0.2,0.2,0.3,0.5,0.3,0.8   s-0.2,0.5-0.4,0.7l-0.7,0.5l-0.3,1.2c-0.1,0.3-0.3,0.6-0.6,0.7l-1.3,0.5l-1.6,1.4l-0.8,1.5l-0.1,2.3c0,0.4-0.2,0.7-0.5,0.9   l-1.4,0.7l-0.9,0.9l-1.4,1.2l-1,1.3l-0.3,1.8c0,0.1,0,0.1-0.1,0.2l-0.8,1.8c0,0.1-0.1,0.1-0.1,0.2l-1.2,1.7   c-0.1,0.1-0.2,0.2-0.2,0.2l-1.5,1c0,0-0.1,0.1-0.1,0.1l-0.7,0.3l0,0l1.7,1c0.3,0.2,0.5,0.6,0.5,1l-0.2,1.4   c-0.1,0.4-0.4,0.8-0.8,0.9l-1.1,0.2l-0.2,0.8l0.3,1.4c0.1,0.3,0,0.6-0.2,0.9s-0.5,0.3-0.8,0.3l-1.5-0.1l-1.4,0.7l-0.3,1.5l-0.1,1.5   c0,0.4-0.2,0.7-0.6,0.8c-0.3,0.2-0.7,0.1-1-0.1l-1.4-0.9l-1.2-0.1l-0.9,1.2c-0.1,0.2-0.3,0.3-0.6,0.4l-2.4,0.6   c-0.4,0.1-0.7,0-1-0.3l-0.8-0.9l-0.3,0.1l-0.6,1c-0.2,0.3-0.6,0.5-1,0.5l-1.3-0.2c-0.3,0-0.5-0.2-0.7-0.4l-0.5-0.7l-0.1,0.4   l-0.4,1.9c-0.1,0.3-0.3,0.6-0.5,0.7c-0.3,0.1-0.6,0.1-0.9,0l-1.2-0.6l-0.3,0.2l0.2,1c0,0.3,0,0.5-0.2,0.8c-0.2,0.2-0.4,0.4-0.7,0.4   l-1.9,0.3l-1.3,0.9l-2.7,4.9l-0.7,1.7l-0.3,2.4l0.2,0.9l0.9,2.1l0.8,1.6l1.3,1.2c0.1,0.1,0.2,0.2,0.2,0.4l0.6,1.7l0.8,0.4   c0.4,0.2,0.6,0.6,0.5,1l-0.3,2.9c0,0.3-0.2,0.6-0.4,0.7l-1.5,1c-0.4,0.2-0.8,0.2-1.2,0l-0.8-0.6l-1.3,0.2c-0.1,0-0.3,0-0.4,0   l-2.3-0.5l-2,0.1l-0.9,0.5l-2.8,3.2l-0.1,1.2l0.9,1.4l1.7,0.7c0.3,0.1,0.5,0.4,0.6,0.7l0.2,1l0.9,0.8l2.2,1.4   c0.1,0.1,0.2,0.1,0.2,0.2l1.4,1.7l1,1.1l2.1,1.2l2.5,1.6l2.3,0.1c0.3,0,0.6,0.2,0.8,0.4l1.1,1.5l2,2.1l1.5,1.3l2.3,0.3   c0.3,0,0.5,0.2,0.7,0.4l1,1.6l1.8,1.1c0,0,0.1,0.1,0.1,0.1l2.6,2.2l3.6,1.3l3-0.2c0.1,0,0.2,0,0.3,0l2.2,0.6c0.1,0,0.2,0.1,0.2,0.1   l2.2,1.3c0.1,0,0.1,0.1,0.1,0.1l3.6,3l1.7,1.2c0.2,0.1,0.3,0.3,0.4,0.4l1,2.4l0.9,1.9l0.5,1.2l1.7-0.1c0.1,0,0.2,0,0.3,0l2.2,0.6   l1.7,0.5l2.1-0.7c0.2-0.1,0.5-0.1,0.7,0l0.9,0.4c0.2,0.1,0.3,0.2,0.4,0.3l0.7,1l1.2,0.3l1.7,0.4c0.1,0,0.3,0.1,0.4,0.2l1.1,0.9   L75,397l1.7-0.1c0.1,0,0.2,0,0.4,0.1l0.2,0.1c0-0.3,0.1-0.5,0.2-0.7c0.2-0.2,0.5-0.4,0.8-0.3l2.4,0.1c0.1,0,0.2,0,0.3,0.1l1.6,0.6   c0.1,0,0.2,0.1,0.3,0.2l0.8,0.8l1.1-0.6c0.1-0.1,0.3-0.1,0.5-0.1l2.6-0.1l0.2-3.6c0-0.3,0.1-0.5,0.3-0.7c0.2-0.2,0.5-0.3,0.8-0.2   l0.6,0.1l0,0c0-0.3,0.2-0.5,0.4-0.6l1-0.7c0.3-0.2,0.7-0.2,1-0.1l3.2,1.7l0.7-0.2c0.4-0.1,0.7,0,1,0.3l1.2,1.3l1.2,0.3   c0.2,0.1,0.5,0.2,0.6,0.4l1.1,1.7l1.3,1.2c0.1,0.1,0.1,0.1,0.2,0.2l1,1.5l2,0.9c0,0,0.1,0,0.1,0.1l3.3,2.1l3.8-0.4   c0.3,0,0.6,0.1,0.8,0.3l2.1,2.2l1.4,0.3c0.1,0,0.2,0,0.3,0.1l1.8,0.9l1.3-0.1c0.2,0,0.4,0,0.5,0.1l1.4,0.7l1.4,0.1l2-1.3   c0.3-0.2,0.7-0.2,1.1,0l1.2,0.7l1,0.1l1,0c0.2,0,0.5,0.1,0.7,0.2l1.8,1.5c0.1,0,0.1,0.1,0.2,0.2l1,1.2l1.2,0.3c0,0,0.1,0,0.1,0   l1.3,0.5l1.2-1.5c0.2-0.2,0.5-0.4,0.8-0.4c0.3,0,0.6,0.1,0.8,0.3l1.4,1.5c0.1,0.1,0.1,0.2,0.2,0.3l1,2.4l0.6,1.1l1.2,0.8l1.3,0.1   c0.2,0,0.4,0.1,0.5,0.2l1.6,1.3c0,0,0.1,0.1,0.1,0.1l1,1.1l1.3,0.5l1.8,0.8c0.2,0.1,0.3,0.2,0.4,0.4l0.8,1.2   c0.1,0.1,0.2,0.2,0.3,0.3l1.3,2.5c0,0.1,0.1,0.2,0.1,0.3l0.3,1.6c0.1,0.4-0.1,0.8-0.4,1l-0.5,0.3l0.8,0.5l1.2,0.9   c0.1,0.1,0.2,0.2,0.2,0.3l0.9,1.5c0.2,0.3,0.2,0.8,0,1.1l-0.5,0.7l0.4,0.8c0.1,0.2,0.1,0.5,0.1,0.7l-0.2,1.1l0.5,0.5l1.2-0.4   c0.2-0.1,0.4-0.1,0.6,0l1.8,0.6l2.5,1c0.2,0.1,0.4,0.2,0.5,0.5l0.6,1l0.5,0.2l1-0.7c0.2-0.2,0.5-0.2,0.8-0.1   c0.3,0.1,0.5,0.3,0.6,0.5l0.7,1.5l0.7,1.6l0.7,0.5l5.2,0.4c0.2,0,0.4,0.1,0.5,0.2l1.1,0.9l1.5,1c0.3,0.2,0.4,0.5,0.4,0.8l0.1,1.1   l1,0.8c0.3,0.3,0.5,0.7,0.3,1.1l-0.2,0.5l0.6,0.4l1.5,1c0.4,0.3,0.6,0.9,0.3,1.4l-0.3,0.5l0.2,0c0.4,0.1,0.7,0.4,0.7,0.8   c0.1,0.4-0.1,0.8-0.4,1l-1.6,1.2l-0.2,1l0.6,0.7l0.9,0.1c0.3,0,0.5,0.2,0.7,0.4l1,1.3l0.9,0.3l1.5,0.1l1-0.7c0.3-0.2,0.7-0.3,1-0.1   l0.5,0.2l0.3-0.6c0.2-0.4,0.7-0.6,1.1-0.5c0.4,0.1,0.7,0.5,0.8,0.9l0,0.6l0.7,0c0.3,0,0.6,0.1,0.8,0.3c0.2,0.2,0.3,0.5,0.3,0.8   l-0.1,0.8l0.5,0.2c0.4,0.1,0.7,0.5,0.7,0.9l0.1,1.6c0,0,0,0.1,0,0.1l-0.1,1.4l1.1,1.2c0.2,0.2,0.3,0.5,0.3,0.8   c0,0.3-0.2,0.5-0.4,0.7l-0.1,0.1l0.4,0.5c0.2,0.2,0.3,0.5,0.2,0.8s-0.2,0.5-0.4,0.7l-1.1,0.8l-0.7,1.2c-0.1,0.2-0.3,0.3-0.5,0.4   l-0.3,0.1l0.5,1l0.5,0.7l1.5,0.4l1.9,0.1c0.1,0,0.1,0,0.2,0l1.5,0.4c0.5,0.1,0.8,0.6,0.8,1.1l-0.1,0.8l0.4,0.6l1.9-0.4   c0.1,0,0.1,0,0.2,0l2.2-0.1l0.5-1.1c0.2-0.3,0.5-0.6,0.9-0.6c0.4,0,0.7,0.2,0.9,0.6l0.3,0.6l1-1.6c0.1-0.2,0.4-0.4,0.6-0.5   c0.3-0.1,0.5,0,0.8,0.1l1.3,0.9l1.2,0.6l1.8-0.5c0.1,0,0.3,0,0.4,0l2.2,0.3c0.1,0,0.2,0.1,0.3,0.1l1.2,0.6l3.2-1   c0.1,0,0.3-0.1,0.4,0l0.9,0.1l1.1-1.6c0-0.1,0.1-0.1,0.2-0.2l1.7-1.4c0.2-0.2,0.6-0.3,0.9-0.2l2.1,0.5l1,0l0.1-0.5   c0-0.4,0.3-0.7,0.6-0.8l0.8-0.3l0.8-3c0.1-0.3,0.3-0.6,0.7-0.7l1.6-0.5l1.4-0.7c0.3-0.1,0.6-0.1,0.9,0c0.3,0.1,0.5,0.4,0.5,0.7   l0.2,1l1.8-0.4c0.3-0.1,0.6,0,0.8,0.2l0.9,0.7l1.9,0.3c0.3,0.1,0.6,0.3,0.8,0.6c0.1-0.1,0.3-0.2,0.5-0.2c0.4,0,0.8,0.2,1,0.6   l0.9,1.8l1.1,1l0.9-0.2l1.8-0.7c0.3-0.1,0.6-0.1,0.9,0.1l0.8,0.4l1-0.3l0.8-2.7c0.1-0.5,0.6-0.8,1-0.7l1.7,0.1c0,0,0.1,0,0.1,0   l1,0.2l-0.2-1.3c0-0.4,0.1-0.8,0.5-1c0.3-0.2,0.8-0.2,1.1,0l1.3,0.9l1.2-0.5c0.3-0.1,0.7-0.1,1,0.1l1.6,1.1   c0.2,0.1,0.4,0.4,0.4,0.6l0.1,0.4l0.5-0.1c0.3-0.1,0.6,0,0.9,0.3l1.2,1.1l1.7,0.3c0.3,0.1,0.6,0.3,0.7,0.6l0.7,1.6   c0,0.1,0.1,0.2,0.1,0.2l0.2,1l0.2,0l0.3-0.9c0.1-0.3,0.3-0.5,0.6-0.6c0.3-0.1,0.6-0.1,0.9,0.1l1,0.7l0.5-0.3   c0.2-0.2,0.5-0.2,0.8-0.1c0.3,0.1,0.5,0.2,0.6,0.5l0.7,1.2l0.6-0.4c0.3-0.2,0.6-0.2,0.9-0.1l1.6,0.6c0.3,0.1,0.6,0.4,0.6,0.8   c0,0.1,0,0.2,0,0.2l0.7-0.4c0.3-0.1,0.6-0.2,0.8,0c0.3,0.1,0.5,0.3,0.6,0.6l0.5,1.6c0,0,0,0.1,0,0.1l0.1,0.6l0.5-0.1   c0.3-0.1,0.6,0,0.8,0.2c0.2,0.1,0.3,0.3,0.3,0.6l0.6-0.5c0.3-0.2,0.6-0.3,0.9-0.2c0.3,0.1,0.6,0.4,0.7,0.7l0.8,3.1   c0.1,0.3,0,0.5-0.1,0.8l-19.2,30.7l0.4,0.1l2.4-0.3c0.1,0,0.1,0,0.2,0l1.8,0.1c0.1,0,0.2,0,0.2,0l1.8,0.6l1-1.2l1.5-1.5   c0.3-0.3,0.6-0.4,1-0.2l2,0.6c0.3,0.1,0.5,0.2,0.6,0.5l0.7,1.2l1.2,1.4l0.9,0.7l1.8,0.5c0.2,0.1,0.3,0.2,0.5,0.3l0.9,1.1   c0.1,0.2,0.2,0.4,0.2,0.6l0.1,2L284.6,519.4z M56.1,280.5l-0.1,0.3l0.6-0.9L56.1,280.5z M104.5,84.7l0,0.6l0-0.7L104.5,84.7z"
       id="path6" /></g><g
     id="termales_01" class="icono"><path
       d="M127.2,64.8c-0.3-0.4-0.6-0.7-1-1.1c-0.6-0.7-1.2-1.3-1.7-2.1c-0.8-1.1-1.7-2.2-2.5-3.3c-0.7-1-1.4-2-2-3.1   c-0.6-1-1.1-2-1.4-3c-0.3-0.7-0.4-1.5-0.5-2.2c-0.1-0.4-0.1-0.7-0.1-1.1c0-0.3,0-0.5,0-0.8c0-2.4,0.8-4.4,2.4-6.2   c1.3-1.4,2.8-2.3,4.6-2.7c0.8-0.2,1.6-0.3,2.4-0.3c1.7,0,3.4,0.5,4.8,1.4c0.8,0.5,1.4,1,2,1.7c0.3,0.3,0.6,0.6,0.8,1   c0.7,0.9,1.2,1.9,1.4,3c0.1,0.4,0.2,0.9,0.2,1.3c0.1,1.1-0.1,2.2-0.4,3.3c-0.3,1.1-0.7,2.2-1.2,3.2c-0.6,1.2-1.2,2.3-1.9,3.4   c-0.9,1.3-1.8,2.6-2.7,3.8c-0.4,0.5-0.7,1-1.1,1.4c-0.2,0.3-0.5,0.6-0.7,0.8C128.1,63.8,127.7,64.3,127.2,64.8   C127.3,64.8,127.3,64.8,127.2,64.8z M134.1,48.6c0-0.2,0-0.3,0-0.5c0-0.3,0-0.5-0.1-0.7c-0.1-0.4-0.2-0.9-0.4-1.3   c-0.1-0.4-0.3-0.7-0.5-1c-0.2-0.4-0.5-0.8-0.9-1.2c-0.2-0.3-0.5-0.5-0.8-0.8c-0.3-0.2-0.6-0.4-0.9-0.6c-0.4-0.2-0.8-0.4-1.2-0.5   c-0.4-0.1-0.7-0.2-1.1-0.3c-0.3,0-0.6-0.1-0.9-0.1c-0.3,0-0.6,0-0.8,0c-0.2,0-0.5,0.1-0.7,0.1c-0.2,0-0.4,0.1-0.7,0.2   c-0.3,0.1-0.7,0.2-1,0.4c-0.3,0.2-0.6,0.3-0.8,0.5c-0.2,0.2-0.4,0.3-0.7,0.5c-0.3,0.3-0.5,0.5-0.8,0.8c-0.3,0.4-0.5,0.7-0.7,1.1   c-0.1,0.2-0.2,0.3-0.2,0.5c-0.2,0.4-0.3,0.8-0.4,1.3c-0.1,0.2-0.1,0.5-0.1,0.7c0,0.2-0.1,0.4-0.1,0.6c0,0.2,0,0.5,0,0.7   c0,0.1,0,0.2,0,0.3c0,0.2,0.1,0.5,0.1,0.7c0.1,0.5,0.3,1,0.5,1.5c0.1,0.3,0.3,0.5,0.4,0.8c0.3,0.4,0.6,0.8,0.9,1.1   c0.2,0.2,0.3,0.3,0.5,0.5c0.2,0.2,0.4,0.3,0.6,0.4c0.3,0.2,0.7,0.4,1,0.6c0.3,0.2,0.7,0.3,1.1,0.4c0.3,0.1,0.6,0.1,0.9,0.2   c0.3,0,0.5,0.1,0.8,0.1c0.2,0,0.4,0,0.6,0c0.2,0,0.4,0,0.6-0.1c0.6-0.1,1.2-0.3,1.8-0.6c0.4-0.2,0.8-0.4,1.1-0.7   c0.2-0.2,0.4-0.4,0.6-0.6c0.1-0.1,0.3-0.3,0.4-0.4c0.2-0.2,0.3-0.4,0.5-0.6c0.2-0.3,0.4-0.7,0.6-1.1c0.1-0.2,0.2-0.4,0.2-0.6   c0.1-0.3,0.2-0.6,0.2-0.9c0.1-0.3,0.1-0.6,0.1-0.8C134.1,49,134.1,48.8,134.1,48.6z"
       id="path10" /><path

       d="M134.1,48.6c0,0.2,0,0.4,0,0.6c0,0.3-0.1,0.6-0.1,0.8c-0.1,0.3-0.1,0.6-0.2,0.9c-0.1,0.2-0.1,0.4-0.2,0.6   c-0.2,0.4-0.4,0.7-0.6,1.1c-0.2,0.2-0.3,0.4-0.5,0.6c-0.1,0.1-0.2,0.3-0.4,0.4c-0.2,0.2-0.4,0.4-0.6,0.6c-0.4,0.3-0.7,0.5-1.1,0.7   c-0.6,0.3-1.2,0.5-1.8,0.6c-0.2,0-0.4,0.1-0.6,0.1c-0.2,0-0.4,0-0.6,0c-0.3,0-0.5,0-0.8-0.1c-0.3,0-0.6-0.1-0.9-0.2   c-0.4-0.1-0.7-0.2-1.1-0.4c-0.4-0.2-0.7-0.4-1-0.6c-0.2-0.1-0.4-0.3-0.6-0.4c-0.2-0.1-0.3-0.3-0.5-0.5c-0.3-0.4-0.6-0.7-0.9-1.1   c-0.2-0.2-0.3-0.5-0.4-0.8c-0.2-0.5-0.4-1-0.5-1.5c-0.1-0.2-0.1-0.5-0.1-0.7c0-0.1,0-0.2,0-0.3c0-0.2,0-0.5,0-0.7   c0-0.2,0-0.4,0.1-0.6c0-0.2,0.1-0.5,0.1-0.7c0.1-0.4,0.2-0.9,0.4-1.3c0.1-0.2,0.2-0.4,0.2-0.5c0.2-0.4,0.5-0.8,0.7-1.1   c0.2-0.3,0.5-0.6,0.8-0.8c0.2-0.2,0.4-0.4,0.7-0.5c0.3-0.2,0.6-0.4,0.8-0.5c0.3-0.2,0.6-0.3,1-0.4c0.2-0.1,0.4-0.1,0.7-0.2   c0.2,0,0.5-0.1,0.7-0.1c0.3,0,0.6,0,0.8,0c0.3,0,0.6,0,0.9,0.1c0.4,0.1,0.7,0.1,1.1,0.3c0.4,0.1,0.8,0.3,1.2,0.5   c0.3,0.2,0.6,0.4,0.9,0.6c0.3,0.2,0.6,0.5,0.8,0.8c0.3,0.4,0.6,0.8,0.9,1.2c0.2,0.3,0.4,0.7,0.5,1c0.2,0.4,0.3,0.9,0.4,1.3   c0,0.2,0.1,0.5,0.1,0.7C134.1,48.3,134.1,48.5,134.1,48.6z M127.2,53.2c0.2,0,0.4,0,0.6-0.1c0.9-0.2,1.7-0.5,2.4-1.2   c1.1-1,1.5-2.3,1.5-3.8c0-0.7-0.2-1.3-0.5-1.8c-0.8-1.4-2-2.2-3.6-2.4c-0.7-0.1-1.3,0-2,0.3c-1.6,0.6-2.8,2.1-3,4   c-0.1,0.8,0.1,1.6,0.5,2.4C123.9,52.2,125.4,53.2,127.2,53.2z"
       id="path12" /><path
       class="icono_relleno"
       d="M127.2,53.2c-1.8,0-3.4-1-4.2-2.6c-0.4-0.8-0.5-1.6-0.5-2.4c0.1-1.9,1.3-3.4,3-4c0.6-0.2,1.3-0.3,2-0.3   c1.6,0.2,2.8,1,3.6,2.4c0.3,0.6,0.5,1.2,0.5,1.8c0.1,1.5-0.4,2.7-1.5,3.8c-0.7,0.6-1.5,1-2.4,1.2C127.6,53.2,127.4,53.2,127.2,53.2   z"
       id="path14" /></g><g
     id="termales_08" class="icono"><path
       d="M184.4,226.7c-0.3-0.4-0.6-0.7-1-1.1c-0.6-0.7-1.2-1.3-1.7-2.1c-0.8-1.1-1.7-2.2-2.5-3.3c-0.7-1-1.4-2-2-3.1   c-0.6-1-1.1-2-1.4-3c-0.3-0.7-0.4-1.5-0.5-2.2c-0.1-0.4-0.1-0.7-0.1-1.1c0-0.3,0-0.5,0-0.8c0-2.4,0.8-4.4,2.4-6.2   c1.3-1.4,2.8-2.3,4.6-2.7c0.8-0.2,1.6-0.3,2.4-0.3c1.7,0,3.4,0.5,4.8,1.4c0.8,0.5,1.4,1,2,1.7c0.3,0.3,0.6,0.6,0.8,1   c0.7,0.9,1.2,1.9,1.4,3c0.1,0.4,0.2,0.9,0.2,1.3c0.1,1.1-0.1,2.2-0.4,3.3c-0.3,1.1-0.7,2.2-1.2,3.2c-0.6,1.2-1.2,2.3-1.9,3.4   c-0.9,1.3-1.8,2.6-2.7,3.8c-0.4,0.5-0.7,1-1.1,1.4c-0.2,0.3-0.5,0.6-0.7,0.8C185.2,225.6,184.8,226.1,184.4,226.7   C184.4,226.6,184.4,226.6,184.4,226.7z M191.2,210.5c0-0.2,0-0.3,0-0.5c0-0.3,0-0.5-0.1-0.7c-0.1-0.4-0.2-0.9-0.4-1.3   c-0.1-0.4-0.3-0.7-0.5-1c-0.2-0.4-0.5-0.8-0.9-1.2c-0.2-0.3-0.5-0.5-0.8-0.8c-0.3-0.2-0.6-0.4-0.9-0.6c-0.4-0.2-0.8-0.4-1.2-0.5   c-0.4-0.1-0.7-0.2-1.1-0.3c-0.3,0-0.6-0.1-0.9-0.1c-0.3,0-0.6,0-0.8,0c-0.2,0-0.5,0.1-0.7,0.1c-0.2,0-0.4,0.1-0.7,0.2   c-0.3,0.1-0.7,0.2-1,0.4c-0.3,0.2-0.6,0.3-0.8,0.5c-0.2,0.2-0.4,0.3-0.7,0.5c-0.3,0.3-0.5,0.5-0.8,0.8c-0.3,0.4-0.5,0.7-0.7,1.1   c-0.1,0.2-0.2,0.3-0.2,0.5c-0.2,0.4-0.3,0.8-0.4,1.3c-0.1,0.2-0.1,0.5-0.1,0.7c0,0.2-0.1,0.4-0.1,0.6c0,0.2,0,0.5,0,0.7   c0,0.1,0,0.2,0,0.3c0,0.2,0.1,0.5,0.1,0.7c0.1,0.5,0.3,1,0.5,1.5c0.1,0.3,0.3,0.5,0.4,0.8c0.3,0.4,0.6,0.8,0.9,1.1   c0.2,0.2,0.3,0.3,0.5,0.5c0.2,0.2,0.4,0.3,0.6,0.4c0.3,0.2,0.7,0.4,1,0.6c0.3,0.2,0.7,0.3,1.1,0.4c0.3,0.1,0.6,0.1,0.9,0.2   c0.3,0,0.5,0.1,0.8,0.1c0.2,0,0.4,0,0.6,0c0.2,0,0.4,0,0.6-0.1c0.6-0.1,1.2-0.3,1.8-0.6c0.4-0.2,0.8-0.4,1.1-0.7   c0.2-0.2,0.4-0.4,0.6-0.6c0.1-0.1,0.3-0.3,0.4-0.4c0.2-0.2,0.3-0.4,0.5-0.6c0.2-0.3,0.4-0.7,0.6-1.1c0.1-0.2,0.2-0.4,0.2-0.6   c0.1-0.3,0.2-0.6,0.2-0.9c0.1-0.3,0.1-0.6,0.1-0.8C191.2,210.9,191.3,210.7,191.2,210.5z"
       id="path18" /><path

       d="M191.2,210.5c0,0.2,0,0.4,0,0.6c0,0.3-0.1,0.6-0.1,0.8c-0.1,0.3-0.1,0.6-0.2,0.9c-0.1,0.2-0.1,0.4-0.2,0.6   c-0.2,0.4-0.4,0.7-0.6,1.1c-0.2,0.2-0.3,0.4-0.5,0.6c-0.1,0.1-0.2,0.3-0.4,0.4c-0.2,0.2-0.4,0.4-0.6,0.6c-0.4,0.3-0.7,0.5-1.1,0.7   c-0.6,0.3-1.2,0.5-1.8,0.6c-0.2,0-0.4,0.1-0.6,0.1c-0.2,0-0.4,0-0.6,0c-0.3,0-0.5,0-0.8-0.1c-0.3,0-0.6-0.1-0.9-0.2   c-0.4-0.1-0.7-0.2-1.1-0.4c-0.4-0.2-0.7-0.4-1-0.6c-0.2-0.1-0.4-0.3-0.6-0.4c-0.2-0.1-0.3-0.3-0.5-0.5c-0.3-0.4-0.6-0.7-0.9-1.1   c-0.2-0.2-0.3-0.5-0.4-0.8c-0.2-0.5-0.4-1-0.5-1.5c-0.1-0.2-0.1-0.5-0.1-0.7c0-0.1,0-0.2,0-0.3c0-0.2,0-0.5,0-0.7   c0-0.2,0-0.4,0.1-0.6c0-0.2,0.1-0.5,0.1-0.7c0.1-0.4,0.2-0.9,0.4-1.3c0.1-0.2,0.2-0.4,0.2-0.5c0.2-0.4,0.5-0.8,0.7-1.1   c0.2-0.3,0.5-0.6,0.8-0.8c0.2-0.2,0.4-0.4,0.7-0.5c0.3-0.2,0.6-0.4,0.8-0.5c0.3-0.2,0.6-0.3,1-0.4c0.2-0.1,0.4-0.1,0.7-0.2   c0.2,0,0.5-0.1,0.7-0.1c0.3,0,0.6,0,0.8,0c0.3,0,0.6,0,0.9,0.1c0.4,0.1,0.7,0.1,1.1,0.3c0.4,0.1,0.8,0.3,1.2,0.5   c0.3,0.2,0.6,0.4,0.9,0.6c0.3,0.2,0.6,0.5,0.8,0.8c0.3,0.4,0.6,0.8,0.9,1.2c0.2,0.3,0.4,0.7,0.5,1c0.2,0.4,0.3,0.9,0.4,1.3   c0,0.2,0.1,0.5,0.1,0.7C191.2,210.1,191.2,210.3,191.2,210.5z M184.4,215c0.2,0,0.4,0,0.6-0.1c0.9-0.2,1.7-0.5,2.4-1.2   c1.1-1,1.5-2.3,1.5-3.8c0-0.7-0.2-1.3-0.5-1.8c-0.8-1.4-2-2.2-3.6-2.4c-0.7-0.1-1.3,0-2,0.3c-1.6,0.6-2.8,2.1-3,4   c-0.1,0.8,0.1,1.6,0.5,2.4C181,214,182.6,215,184.4,215z"
       id="path20" /><path
       class="icono_relleno"
       d="M184.4,215c-1.8,0-3.4-1-4.2-2.6c-0.4-0.8-0.5-1.6-0.5-2.4c0.1-1.9,1.3-3.4,3-4c0.6-0.2,1.3-0.3,2-0.3   c1.6,0.2,2.8,1,3.6,2.4c0.3,0.6,0.5,1.2,0.5,1.8c0.1,1.5-0.4,2.7-1.5,3.8c-0.7,0.6-1.5,1-2.4,1.2C184.8,215,184.5,215,184.4,215z"
       id="path22" /></g><g
     id="termales_06" class="icono"><path
       d="M119.5,231.4c-0.3-0.4-0.6-0.7-1-1.1c-0.6-0.7-1.2-1.3-1.7-2.1c-0.8-1.1-1.7-2.2-2.5-3.3c-0.7-1-1.4-2-2-3.1   c-0.6-1-1.1-2-1.4-3c-0.3-0.7-0.4-1.5-0.5-2.2c-0.1-0.4-0.1-0.7-0.1-1.1c0-0.3,0-0.5,0-0.8c0-2.4,0.8-4.4,2.4-6.2   c1.3-1.4,2.8-2.3,4.6-2.7c0.8-0.2,1.6-0.3,2.4-0.3c1.7,0,3.4,0.5,4.8,1.4c0.8,0.5,1.4,1,2,1.7c0.3,0.3,0.6,0.6,0.8,1   c0.7,0.9,1.2,1.9,1.4,3c0.1,0.4,0.2,0.9,0.2,1.3c0.1,1.1-0.1,2.2-0.4,3.3c-0.3,1.1-0.7,2.2-1.2,3.2c-0.6,1.2-1.2,2.3-1.9,3.4   c-0.9,1.3-1.8,2.6-2.7,3.8c-0.4,0.5-0.7,1-1.1,1.4c-0.2,0.3-0.5,0.6-0.7,0.8C120.4,230.4,120,230.9,119.5,231.4   C119.5,231.4,119.5,231.4,119.5,231.4z M126.4,215.2c0-0.2,0-0.3,0-0.5c0-0.3,0-0.5-0.1-0.7c-0.1-0.4-0.2-0.9-0.4-1.3   c-0.1-0.4-0.3-0.7-0.5-1c-0.2-0.4-0.5-0.8-0.9-1.2c-0.2-0.3-0.5-0.5-0.8-0.8c-0.3-0.2-0.6-0.4-0.9-0.6c-0.4-0.2-0.8-0.4-1.2-0.5   c-0.4-0.1-0.7-0.2-1.1-0.3c-0.3,0-0.6-0.1-0.9-0.1c-0.3,0-0.6,0-0.8,0c-0.2,0-0.5,0.1-0.7,0.1c-0.2,0-0.4,0.1-0.7,0.2   c-0.3,0.1-0.7,0.2-1,0.4c-0.3,0.2-0.6,0.3-0.8,0.5c-0.2,0.2-0.4,0.3-0.7,0.5c-0.3,0.3-0.5,0.5-0.8,0.8c-0.3,0.4-0.5,0.7-0.7,1.1   c-0.1,0.2-0.2,0.3-0.2,0.5c-0.2,0.4-0.3,0.8-0.4,1.3c-0.1,0.2-0.1,0.5-0.1,0.7c0,0.2-0.1,0.4-0.1,0.6c0,0.2,0,0.5,0,0.7   c0,0.1,0,0.2,0,0.3c0,0.2,0.1,0.5,0.1,0.7c0.1,0.5,0.3,1,0.5,1.5c0.1,0.3,0.3,0.5,0.4,0.8c0.3,0.4,0.6,0.8,0.9,1.1   c0.2,0.2,0.3,0.3,0.5,0.5c0.2,0.2,0.4,0.3,0.6,0.4c0.3,0.2,0.7,0.4,1,0.6c0.3,0.2,0.7,0.3,1.1,0.4c0.3,0.1,0.6,0.1,0.9,0.2   c0.3,0,0.5,0.1,0.8,0.1c0.2,0,0.4,0,0.6,0c0.2,0,0.4,0,0.6-0.1c0.6-0.1,1.2-0.3,1.8-0.6c0.4-0.2,0.8-0.4,1.1-0.7   c0.2-0.2,0.4-0.4,0.6-0.6c0.1-0.1,0.3-0.3,0.4-0.4c0.2-0.2,0.3-0.4,0.5-0.6c0.2-0.3,0.4-0.7,0.6-1.1c0.1-0.2,0.2-0.4,0.2-0.6   c0.1-0.3,0.2-0.6,0.2-0.9c0.1-0.3,0.1-0.6,0.1-0.8C126.4,215.7,126.4,215.4,126.4,215.2z"
       id="path26" /><path

       d="M126.4,215.2c0,0.2,0,0.4,0,0.6c0,0.3-0.1,0.6-0.1,0.8c-0.1,0.3-0.1,0.6-0.2,0.9c-0.1,0.2-0.1,0.4-0.2,0.6   c-0.2,0.4-0.4,0.7-0.6,1.1c-0.2,0.2-0.3,0.4-0.5,0.6c-0.1,0.1-0.2,0.3-0.4,0.4c-0.2,0.2-0.4,0.4-0.6,0.6c-0.4,0.3-0.7,0.5-1.1,0.7   c-0.6,0.3-1.2,0.5-1.8,0.6c-0.2,0-0.4,0.1-0.6,0.1c-0.2,0-0.4,0-0.6,0c-0.3,0-0.5,0-0.8-0.1c-0.3,0-0.6-0.1-0.9-0.2   c-0.4-0.1-0.7-0.2-1.1-0.4c-0.4-0.2-0.7-0.4-1-0.6c-0.2-0.1-0.4-0.3-0.6-0.4c-0.2-0.1-0.3-0.3-0.5-0.5c-0.3-0.4-0.6-0.7-0.9-1.1   c-0.2-0.2-0.3-0.5-0.4-0.8c-0.2-0.5-0.4-1-0.5-1.5c-0.1-0.2-0.1-0.5-0.1-0.7c0-0.1,0-0.2,0-0.3c0-0.2,0-0.5,0-0.7   c0-0.2,0-0.4,0.1-0.6c0-0.2,0.1-0.5,0.1-0.7c0.1-0.4,0.2-0.9,0.4-1.3c0.1-0.2,0.2-0.4,0.2-0.5c0.2-0.4,0.5-0.8,0.7-1.1   c0.2-0.3,0.5-0.6,0.8-0.8c0.2-0.2,0.4-0.4,0.7-0.5c0.3-0.2,0.6-0.4,0.8-0.5c0.3-0.2,0.6-0.3,1-0.4c0.2-0.1,0.4-0.1,0.7-0.2   c0.2,0,0.5-0.1,0.7-0.1c0.3,0,0.6,0,0.8,0c0.3,0,0.6,0,0.9,0.1c0.4,0.1,0.7,0.1,1.1,0.3c0.4,0.1,0.8,0.3,1.2,0.5   c0.3,0.2,0.6,0.4,0.9,0.6c0.3,0.2,0.6,0.5,0.8,0.8c0.3,0.4,0.6,0.8,0.9,1.2c0.2,0.3,0.4,0.7,0.5,1c0.2,0.4,0.3,0.9,0.4,1.3   c0,0.2,0.1,0.5,0.1,0.7C126.4,214.9,126.4,215.1,126.4,215.2z M119.5,219.8c0.2,0,0.4,0,0.6-0.1c0.9-0.2,1.7-0.5,2.4-1.2   c1.1-1,1.5-2.3,1.5-3.8c0-0.7-0.2-1.3-0.5-1.8c-0.8-1.4-2-2.2-3.6-2.4c-0.7-0.1-1.3,0-2,0.3c-1.6,0.6-2.8,2.1-3,4   c-0.1,0.8,0.1,1.6,0.5,2.4C116.1,218.8,117.7,219.8,119.5,219.8z"
       id="path28" /><path
       class="icono_relleno"
       d="M119.5,219.8c-1.8,0-3.4-1-4.2-2.6c-0.4-0.8-0.5-1.6-0.5-2.4c0.1-1.9,1.3-3.4,3-4c0.6-0.2,1.3-0.3,2-0.3   c1.6,0.2,2.8,1,3.6,2.4c0.3,0.6,0.5,1.2,0.5,1.8c0.1,1.5-0.4,2.7-1.5,3.8c-0.7,0.6-1.5,1-2.4,1.2   C119.9,219.8,119.7,219.8,119.5,219.8z"
       id="path30" /></g><g
     id="termales_09" class="icono"><path
       d="M67.7,317.1c-0.3-0.4-0.6-0.7-1-1.1c-0.6-0.7-1.2-1.3-1.7-2.1c-0.8-1.1-1.7-2.2-2.5-3.3c-0.7-1-1.4-2-2-3.1   c-0.6-1-1.1-2-1.4-3c-0.3-0.7-0.4-1.5-0.5-2.2c-0.1-0.4-0.1-0.7-0.1-1.1c0-0.3,0-0.5,0-0.8c0-2.4,0.8-4.4,2.4-6.2   c1.3-1.4,2.8-2.3,4.6-2.7c0.8-0.2,1.6-0.3,2.4-0.3c1.7,0,3.4,0.5,4.8,1.4c0.8,0.5,1.4,1,2,1.7c0.3,0.3,0.6,0.6,0.8,1   c0.7,0.9,1.2,1.9,1.4,3c0.1,0.4,0.2,0.9,0.2,1.3c0.1,1.1-0.1,2.2-0.4,3.3c-0.3,1.1-0.7,2.2-1.2,3.2c-0.6,1.2-1.2,2.3-1.9,3.4   c-0.9,1.3-1.8,2.6-2.7,3.8c-0.4,0.5-0.7,1-1.1,1.4c-0.2,0.3-0.5,0.6-0.7,0.8C68.6,316.1,68.2,316.6,67.7,317.1   C67.8,317.1,67.8,317.1,67.7,317.1z M74.6,300.9c0-0.2,0-0.3,0-0.5c0-0.3,0-0.5-0.1-0.7c-0.1-0.4-0.2-0.9-0.4-1.3   c-0.1-0.4-0.3-0.7-0.5-1c-0.2-0.4-0.5-0.8-0.9-1.2c-0.2-0.3-0.5-0.5-0.8-0.8c-0.3-0.2-0.6-0.4-0.9-0.6c-0.4-0.2-0.8-0.4-1.2-0.5   c-0.4-0.1-0.7-0.2-1.1-0.3c-0.3,0-0.6-0.1-0.9-0.1c-0.3,0-0.6,0-0.8,0c-0.2,0-0.5,0.1-0.7,0.1c-0.2,0-0.4,0.1-0.7,0.2   c-0.3,0.1-0.7,0.2-1,0.4c-0.3,0.2-0.6,0.3-0.8,0.5c-0.2,0.2-0.4,0.3-0.7,0.5c-0.3,0.3-0.5,0.5-0.8,0.8c-0.3,0.4-0.5,0.7-0.7,1.1   c-0.1,0.2-0.2,0.3-0.2,0.5c-0.2,0.4-0.3,0.8-0.4,1.3c-0.1,0.2-0.1,0.5-0.1,0.7c0,0.2-0.1,0.4-0.1,0.6c0,0.2,0,0.5,0,0.7   c0,0.1,0,0.2,0,0.3c0,0.2,0.1,0.5,0.1,0.7c0.1,0.5,0.3,1,0.5,1.5c0.1,0.3,0.3,0.5,0.4,0.8c0.3,0.4,0.6,0.8,0.9,1.1   c0.2,0.2,0.3,0.3,0.5,0.5c0.2,0.2,0.4,0.3,0.6,0.4c0.3,0.2,0.7,0.4,1,0.6c0.3,0.2,0.7,0.3,1.1,0.4c0.3,0.1,0.6,0.1,0.9,0.2   c0.3,0,0.5,0.1,0.8,0.1c0.2,0,0.4,0,0.6,0c0.2,0,0.4,0,0.6-0.1c0.6-0.1,1.2-0.3,1.8-0.6c0.4-0.2,0.8-0.4,1.1-0.7   c0.2-0.2,0.4-0.4,0.6-0.6c0.1-0.1,0.3-0.3,0.4-0.4c0.2-0.2,0.3-0.4,0.5-0.6c0.2-0.3,0.4-0.7,0.6-1.1c0.1-0.2,0.2-0.4,0.2-0.6   c0.1-0.3,0.2-0.6,0.2-0.9c0.1-0.3,0.1-0.6,0.1-0.8C74.6,301.4,74.6,301.1,74.6,300.9z"
       id="path34" /><path

       d="M74.6,300.9c0,0.2,0,0.4,0,0.6c0,0.3-0.1,0.6-0.1,0.8c-0.1,0.3-0.1,0.6-0.2,0.9c-0.1,0.2-0.1,0.4-0.2,0.6   c-0.2,0.4-0.4,0.7-0.6,1.1c-0.2,0.2-0.3,0.4-0.5,0.6c-0.1,0.1-0.2,0.3-0.4,0.4c-0.2,0.2-0.4,0.4-0.6,0.6c-0.4,0.3-0.7,0.5-1.1,0.7   c-0.6,0.3-1.2,0.5-1.8,0.6c-0.2,0-0.4,0.1-0.6,0.1c-0.2,0-0.4,0-0.6,0c-0.3,0-0.5,0-0.8-0.1c-0.3,0-0.6-0.1-0.9-0.2   c-0.4-0.1-0.7-0.2-1.1-0.4c-0.4-0.2-0.7-0.4-1-0.6c-0.2-0.1-0.4-0.3-0.6-0.4c-0.2-0.1-0.3-0.3-0.5-0.5c-0.3-0.4-0.6-0.7-0.9-1.1   c-0.2-0.2-0.3-0.5-0.4-0.8c-0.2-0.5-0.4-1-0.5-1.5c-0.1-0.2-0.1-0.5-0.1-0.7c0-0.1,0-0.2,0-0.3c0-0.2,0-0.5,0-0.7   c0-0.2,0-0.4,0.1-0.6c0-0.2,0.1-0.5,0.1-0.7c0.1-0.4,0.2-0.9,0.4-1.3c0.1-0.2,0.2-0.4,0.2-0.5c0.2-0.4,0.5-0.8,0.7-1.1   c0.2-0.3,0.5-0.6,0.8-0.8c0.2-0.2,0.4-0.4,0.7-0.5c0.3-0.2,0.6-0.4,0.8-0.5c0.3-0.2,0.6-0.3,1-0.4c0.2-0.1,0.4-0.1,0.7-0.2   c0.2,0,0.5-0.1,0.7-0.1c0.3,0,0.6,0,0.8,0c0.3,0,0.6,0,0.9,0.1c0.4,0.1,0.7,0.1,1.1,0.3c0.4,0.1,0.8,0.3,1.2,0.5   c0.3,0.2,0.6,0.4,0.9,0.6c0.3,0.2,0.6,0.5,0.8,0.8c0.3,0.4,0.6,0.8,0.9,1.2c0.2,0.3,0.4,0.7,0.5,1c0.2,0.4,0.3,0.9,0.4,1.3   c0,0.2,0.1,0.5,0.1,0.7C74.6,300.6,74.6,300.8,74.6,300.9z M67.7,305.5c0.2,0,0.4,0,0.6-0.1c0.9-0.2,1.7-0.5,2.4-1.2   c1.1-1,1.5-2.3,1.5-3.8c0-0.7-0.2-1.3-0.5-1.8c-0.8-1.4-2-2.2-3.6-2.4c-0.7-0.1-1.3,0-2,0.3c-1.6,0.6-2.8,2.1-3,4   c-0.1,0.8,0.1,1.6,0.5,2.4C64.3,304.5,65.9,305.5,67.7,305.5z"
       id="path36" /><path
       class="icono_relleno"
       d="M67.7,305.5c-1.8,0-3.4-1-4.2-2.6c-0.4-0.8-0.5-1.6-0.5-2.4c0.1-1.9,1.3-3.4,3-4c0.6-0.2,1.3-0.3,2-0.3   c1.6,0.2,2.8,1,3.6,2.4c0.3,0.6,0.5,1.2,0.5,1.8c0.1,1.5-0.4,2.7-1.5,3.8c-0.7,0.6-1.5,1-2.4,1.2C68.1,305.5,67.9,305.5,67.7,305.5   z"
       id="path38" /></g><g
     id="termales_03" class="icono"><path
       d="M108.7,138.8c-0.3-0.4-0.6-0.7-1-1.1c-0.6-0.7-1.2-1.3-1.7-2.1c-0.8-1.1-1.7-2.2-2.5-3.3c-0.7-1-1.4-2-2-3.1   c-0.6-1-1.1-2-1.4-3c-0.3-0.7-0.4-1.5-0.5-2.2c-0.1-0.4-0.1-0.7-0.1-1.1c0-0.3,0-0.5,0-0.8c0-2.4,0.8-4.4,2.4-6.2   c1.3-1.4,2.8-2.3,4.6-2.7c0.8-0.2,1.6-0.3,2.4-0.3c1.7,0,3.4,0.5,4.8,1.4c0.8,0.5,1.4,1,2,1.7c0.3,0.3,0.6,0.6,0.8,1   c0.7,0.9,1.2,1.9,1.4,3c0.1,0.4,0.2,0.9,0.2,1.3c0.1,1.1-0.1,2.2-0.4,3.3c-0.3,1.1-0.7,2.2-1.2,3.2c-0.6,1.2-1.2,2.3-1.9,3.4   c-0.9,1.3-1.8,2.6-2.7,3.8c-0.4,0.5-0.7,1-1.1,1.4c-0.2,0.3-0.5,0.6-0.7,0.8C109.5,137.8,109.1,138.2,108.7,138.8   C108.7,138.7,108.7,138.8,108.7,138.8z M115.6,122.6c0-0.2,0-0.3,0-0.5c0-0.3,0-0.5-0.1-0.7c-0.1-0.4-0.2-0.9-0.4-1.3   c-0.1-0.4-0.3-0.7-0.5-1c-0.2-0.4-0.5-0.8-0.9-1.2c-0.2-0.3-0.5-0.5-0.8-0.8c-0.3-0.2-0.6-0.4-0.9-0.6c-0.4-0.2-0.8-0.4-1.2-0.5   c-0.4-0.1-0.7-0.2-1.1-0.3c-0.3,0-0.6-0.1-0.9-0.1c-0.3,0-0.6,0-0.8,0c-0.2,0-0.5,0.1-0.7,0.1c-0.2,0-0.4,0.1-0.7,0.2   c-0.3,0.1-0.7,0.2-1,0.4c-0.3,0.2-0.6,0.3-0.8,0.5c-0.2,0.2-0.4,0.3-0.7,0.5c-0.3,0.3-0.5,0.5-0.8,0.8c-0.3,0.4-0.5,0.7-0.7,1.1   c-0.1,0.2-0.2,0.3-0.2,0.5c-0.2,0.4-0.3,0.8-0.4,1.3c-0.1,0.2-0.1,0.5-0.1,0.7c0,0.2-0.1,0.4-0.1,0.6c0,0.2,0,0.5,0,0.7   c0,0.1,0,0.2,0,0.3c0,0.2,0.1,0.5,0.1,0.7c0.1,0.5,0.3,1,0.5,1.5c0.1,0.3,0.3,0.5,0.4,0.8c0.3,0.4,0.6,0.8,0.9,1.1   c0.2,0.2,0.3,0.3,0.5,0.5c0.2,0.2,0.4,0.3,0.6,0.4c0.3,0.2,0.7,0.4,1,0.6c0.3,0.2,0.7,0.3,1.1,0.4c0.3,0.1,0.6,0.1,0.9,0.2   c0.3,0,0.5,0.1,0.8,0.1c0.2,0,0.4,0,0.6,0c0.2,0,0.4,0,0.6-0.1c0.6-0.1,1.2-0.3,1.8-0.6c0.4-0.2,0.8-0.4,1.1-0.7   c0.2-0.2,0.4-0.4,0.6-0.6c0.1-0.1,0.3-0.3,0.4-0.4c0.2-0.2,0.3-0.4,0.5-0.6c0.2-0.3,0.4-0.7,0.6-1.1c0.1-0.2,0.2-0.4,0.2-0.6   c0.1-0.3,0.2-0.6,0.2-0.9c0.1-0.3,0.1-0.6,0.1-0.8C115.6,123,115.6,122.8,115.6,122.6z"
       id="path42" /><path

       d="M115.6,122.6c0,0.2,0,0.4,0,0.6c0,0.3-0.1,0.6-0.1,0.8c-0.1,0.3-0.1,0.6-0.2,0.9c-0.1,0.2-0.1,0.4-0.2,0.6   c-0.2,0.4-0.4,0.7-0.6,1.1c-0.2,0.2-0.3,0.4-0.5,0.6c-0.1,0.1-0.2,0.3-0.4,0.4c-0.2,0.2-0.4,0.4-0.6,0.6c-0.4,0.3-0.7,0.5-1.1,0.7   c-0.6,0.3-1.2,0.5-1.8,0.6c-0.2,0-0.4,0.1-0.6,0.1c-0.2,0-0.4,0-0.6,0c-0.3,0-0.5,0-0.8-0.1c-0.3,0-0.6-0.1-0.9-0.2   c-0.4-0.1-0.7-0.2-1.1-0.4c-0.4-0.2-0.7-0.4-1-0.6c-0.2-0.1-0.4-0.3-0.6-0.4c-0.2-0.1-0.3-0.3-0.5-0.5c-0.3-0.4-0.6-0.7-0.9-1.1   c-0.2-0.2-0.3-0.5-0.4-0.8c-0.2-0.5-0.4-1-0.5-1.5c-0.1-0.2-0.1-0.5-0.1-0.7c0-0.1,0-0.2,0-0.3c0-0.2,0-0.5,0-0.7   c0-0.2,0-0.4,0.1-0.6c0-0.2,0.1-0.5,0.1-0.7c0.1-0.4,0.2-0.9,0.4-1.3c0.1-0.2,0.2-0.4,0.2-0.5c0.2-0.4,0.5-0.8,0.7-1.1   c0.2-0.3,0.5-0.6,0.8-0.8c0.2-0.2,0.4-0.4,0.7-0.5c0.3-0.2,0.6-0.4,0.8-0.5c0.3-0.2,0.6-0.3,1-0.4c0.2-0.1,0.4-0.1,0.7-0.2   c0.2,0,0.5-0.1,0.7-0.1c0.3,0,0.6,0,0.8,0c0.3,0,0.6,0,0.9,0.1c0.4,0.1,0.7,0.1,1.1,0.3c0.4,0.1,0.8,0.3,1.2,0.5   c0.3,0.2,0.6,0.4,0.9,0.6c0.3,0.2,0.6,0.5,0.8,0.8c0.3,0.4,0.6,0.8,0.9,1.2c0.2,0.3,0.4,0.7,0.5,1c0.2,0.4,0.3,0.9,0.4,1.3   c0,0.2,0.1,0.5,0.1,0.7C115.6,122.2,115.5,122.4,115.6,122.6z M108.7,127.1c0.2,0,0.4,0,0.6-0.1c0.9-0.2,1.7-0.5,2.4-1.2   c1.1-1,1.5-2.3,1.5-3.8c0-0.7-0.2-1.3-0.5-1.8c-0.8-1.4-2-2.2-3.6-2.4c-0.7-0.1-1.3,0-2,0.3c-1.6,0.6-2.8,2.1-3,4   c-0.1,0.8,0.1,1.6,0.5,2.4C105.3,126.1,106.9,127.1,108.7,127.1z"
       id="path44" /><path
       class="icono_relleno"
       d="M108.7,127.1c-1.8,0-3.4-1-4.2-2.6c-0.4-0.8-0.5-1.6-0.5-2.4c0.1-1.9,1.3-3.4,3-4c0.6-0.2,1.3-0.3,2-0.3   c1.6,0.2,2.8,1,3.6,2.4c0.3,0.6,0.5,1.2,0.5,1.8c0.1,1.5-0.4,2.7-1.5,3.8c-0.7,0.6-1.5,1-2.4,1.2   C109.1,127.1,108.8,127.1,108.7,127.1z"
       id="path46" /></g><g
     id="termales_07" class="icono"><path
       d="M152.5,237.1c-0.3-0.4-0.6-0.7-1-1.1c-0.6-0.7-1.2-1.3-1.7-2.1c-0.8-1.1-1.7-2.2-2.5-3.3c-0.7-1-1.4-2-2-3.1   c-0.6-1-1.1-2-1.4-3c-0.3-0.7-0.4-1.5-0.5-2.2c-0.1-0.4-0.1-0.7-0.1-1.1c0-0.3,0-0.5,0-0.8c0-2.4,0.8-4.4,2.4-6.2   c1.3-1.4,2.8-2.3,4.6-2.7c0.8-0.2,1.6-0.3,2.4-0.3c1.7,0,3.4,0.5,4.8,1.4c0.8,0.5,1.4,1,2,1.7c0.3,0.3,0.6,0.6,0.8,1   c0.7,0.9,1.2,1.9,1.4,3c0.1,0.4,0.2,0.9,0.2,1.3c0.1,1.1-0.1,2.2-0.4,3.3c-0.3,1.1-0.7,2.2-1.2,3.2c-0.6,1.2-1.2,2.3-1.9,3.4   c-0.9,1.3-1.8,2.6-2.7,3.8c-0.4,0.5-0.7,1-1.1,1.4c-0.2,0.3-0.5,0.6-0.7,0.8C153.4,236.1,153,236.6,152.5,237.1   C152.6,237.1,152.6,237.1,152.5,237.1z M159.4,220.9c0-0.2,0-0.3,0-0.5c0-0.3,0-0.5-0.1-0.7c-0.1-0.4-0.2-0.9-0.4-1.3   c-0.1-0.4-0.3-0.7-0.5-1c-0.2-0.4-0.5-0.8-0.9-1.2c-0.2-0.3-0.5-0.5-0.8-0.8c-0.3-0.2-0.6-0.4-0.9-0.6c-0.4-0.2-0.8-0.4-1.2-0.5   c-0.4-0.1-0.7-0.2-1.1-0.3c-0.3,0-0.6-0.1-0.9-0.1c-0.3,0-0.6,0-0.8,0c-0.2,0-0.5,0.1-0.7,0.1c-0.2,0-0.4,0.1-0.7,0.2   c-0.3,0.1-0.7,0.2-1,0.4c-0.3,0.2-0.6,0.3-0.8,0.5c-0.2,0.2-0.4,0.3-0.7,0.5c-0.3,0.3-0.5,0.5-0.8,0.8c-0.3,0.4-0.5,0.7-0.7,1.1   c-0.1,0.2-0.2,0.3-0.2,0.5c-0.2,0.4-0.3,0.8-0.4,1.3c-0.1,0.2-0.1,0.5-0.1,0.7c0,0.2-0.1,0.4-0.1,0.6c0,0.2,0,0.5,0,0.7   c0,0.1,0,0.2,0,0.3c0,0.2,0.1,0.5,0.1,0.7c0.1,0.5,0.3,1,0.5,1.5c0.1,0.3,0.3,0.5,0.4,0.8c0.3,0.4,0.6,0.8,0.9,1.1   c0.2,0.2,0.3,0.3,0.5,0.5c0.2,0.2,0.4,0.3,0.6,0.4c0.3,0.2,0.7,0.4,1,0.6c0.3,0.2,0.7,0.3,1.1,0.4c0.3,0.1,0.6,0.1,0.9,0.2   c0.3,0,0.5,0.1,0.8,0.1c0.2,0,0.4,0,0.6,0c0.2,0,0.4,0,0.6-0.1c0.6-0.1,1.2-0.3,1.8-0.6c0.4-0.2,0.8-0.4,1.1-0.7   c0.2-0.2,0.4-0.4,0.6-0.6c0.1-0.1,0.3-0.3,0.4-0.4c0.2-0.2,0.3-0.4,0.5-0.6c0.2-0.3,0.4-0.7,0.6-1.1c0.1-0.2,0.2-0.4,0.2-0.6   c0.1-0.3,0.2-0.6,0.2-0.9c0.1-0.3,0.1-0.6,0.1-0.8C159.4,221.3,159.4,221.1,159.4,220.9z"
       id="path50" /><path

       d="M159.4,220.9c0,0.2,0,0.4,0,0.6c0,0.3-0.1,0.6-0.1,0.8c-0.1,0.3-0.1,0.6-0.2,0.9c-0.1,0.2-0.1,0.4-0.2,0.6   c-0.2,0.4-0.4,0.7-0.6,1.1c-0.2,0.2-0.3,0.4-0.5,0.6c-0.1,0.1-0.2,0.3-0.4,0.4c-0.2,0.2-0.4,0.4-0.6,0.6c-0.4,0.3-0.7,0.5-1.1,0.7   c-0.6,0.3-1.2,0.5-1.8,0.6c-0.2,0-0.4,0.1-0.6,0.1c-0.2,0-0.4,0-0.6,0c-0.3,0-0.5,0-0.8-0.1c-0.3,0-0.6-0.1-0.9-0.2   c-0.4-0.1-0.7-0.2-1.1-0.4c-0.4-0.2-0.7-0.4-1-0.6c-0.2-0.1-0.4-0.3-0.6-0.4c-0.2-0.1-0.3-0.3-0.5-0.5c-0.3-0.4-0.6-0.7-0.9-1.1   c-0.2-0.2-0.3-0.5-0.4-0.8c-0.2-0.5-0.4-1-0.5-1.5c-0.1-0.2-0.1-0.5-0.1-0.7c0-0.1,0-0.2,0-0.3c0-0.2,0-0.5,0-0.7   c0-0.2,0-0.4,0.1-0.6c0-0.2,0.1-0.5,0.1-0.7c0.1-0.4,0.2-0.9,0.4-1.3c0.1-0.2,0.2-0.4,0.2-0.5c0.2-0.4,0.5-0.8,0.7-1.1   c0.2-0.3,0.5-0.6,0.8-0.8c0.2-0.2,0.4-0.4,0.7-0.5c0.3-0.2,0.6-0.4,0.8-0.5c0.3-0.2,0.6-0.3,1-0.4c0.2-0.1,0.4-0.1,0.7-0.2   c0.2,0,0.5-0.1,0.7-0.1c0.3,0,0.6,0,0.8,0c0.3,0,0.6,0,0.9,0.1c0.4,0.1,0.7,0.1,1.1,0.3c0.4,0.1,0.8,0.3,1.2,0.5   c0.3,0.2,0.6,0.4,0.9,0.6c0.3,0.2,0.6,0.5,0.8,0.8c0.3,0.4,0.6,0.8,0.9,1.2c0.2,0.3,0.4,0.7,0.5,1c0.2,0.4,0.3,0.9,0.4,1.3   c0,0.2,0.1,0.5,0.1,0.7C159.4,220.6,159.4,220.8,159.4,220.9z M152.6,225.5c0.2,0,0.4,0,0.6-0.1c0.9-0.2,1.7-0.5,2.4-1.2   c1.1-1,1.5-2.3,1.5-3.8c0-0.7-0.2-1.3-0.5-1.8c-0.8-1.4-2-2.2-3.6-2.4c-0.7-0.1-1.3,0-2,0.3c-1.6,0.6-2.8,2.1-3,4   c-0.1,0.8,0.1,1.6,0.5,2.4C149.2,224.5,150.7,225.5,152.6,225.5z"
       id="path52" /><path
       class="icono_relleno"
       d="M152.6,225.5c-1.8,0-3.4-1-4.2-2.6c-0.4-0.8-0.5-1.6-0.5-2.4c0.1-1.9,1.3-3.4,3-4c0.6-0.2,1.3-0.3,2-0.3   c1.6,0.2,2.8,1,3.6,2.4c0.3,0.6,0.5,1.2,0.5,1.8c0.1,1.5-0.4,2.7-1.5,3.8c-0.7,0.6-1.5,1-2.4,1.2   C153,225.5,152.7,225.5,152.6,225.5z"
       id="path54" /></g><g
     id="termales_10" class="icono"><path
       d="M113.3,317.1c-0.3-0.4-0.6-0.7-1-1.1c-0.6-0.7-1.2-1.3-1.7-2.1c-0.8-1.1-1.7-2.2-2.5-3.3c-0.7-1-1.4-2-2-3.1   c-0.6-1-1.1-2-1.4-3c-0.3-0.7-0.4-1.5-0.5-2.2c-0.1-0.4-0.1-0.7-0.1-1.1c0-0.3,0-0.5,0-0.8c0-2.4,0.8-4.4,2.4-6.2   c1.3-1.4,2.8-2.3,4.6-2.7c0.8-0.2,1.6-0.3,2.4-0.3c1.7,0,3.4,0.5,4.8,1.4c0.8,0.5,1.4,1,2,1.7c0.3,0.3,0.6,0.6,0.8,1   c0.7,0.9,1.2,1.9,1.4,3c0.1,0.4,0.2,0.9,0.2,1.3c0.1,1.1-0.1,2.2-0.4,3.3c-0.3,1.1-0.7,2.2-1.2,3.2c-0.6,1.2-1.2,2.3-1.9,3.4   c-0.9,1.3-1.8,2.6-2.7,3.8c-0.4,0.5-0.7,1-1.1,1.4c-0.2,0.3-0.5,0.6-0.7,0.8C114.2,316.1,113.8,316.6,113.3,317.1   C113.4,317.1,113.3,317.1,113.3,317.1z M120.2,300.9c0-0.2,0-0.3,0-0.5c0-0.3,0-0.5-0.1-0.7c-0.1-0.4-0.2-0.9-0.4-1.3   c-0.1-0.4-0.3-0.7-0.5-1c-0.2-0.4-0.5-0.8-0.9-1.2c-0.2-0.3-0.5-0.5-0.8-0.8c-0.3-0.2-0.6-0.4-0.9-0.6c-0.4-0.2-0.8-0.4-1.2-0.5   c-0.4-0.1-0.7-0.2-1.1-0.3c-0.3,0-0.6-0.1-0.9-0.1c-0.3,0-0.6,0-0.8,0c-0.2,0-0.5,0.1-0.7,0.1c-0.2,0-0.4,0.1-0.7,0.2   c-0.3,0.1-0.7,0.2-1,0.4c-0.3,0.2-0.6,0.3-0.8,0.5c-0.2,0.2-0.4,0.3-0.7,0.5c-0.3,0.3-0.5,0.5-0.8,0.8c-0.3,0.4-0.5,0.7-0.7,1.1   c-0.1,0.2-0.2,0.3-0.2,0.5c-0.2,0.4-0.3,0.8-0.4,1.3c-0.1,0.2-0.1,0.5-0.1,0.7c0,0.2-0.1,0.4-0.1,0.6c0,0.2,0,0.5,0,0.7   c0,0.1,0,0.2,0,0.3c0,0.2,0.1,0.5,0.1,0.7c0.1,0.5,0.3,1,0.5,1.5c0.1,0.3,0.3,0.5,0.4,0.8c0.3,0.4,0.6,0.8,0.9,1.1   c0.2,0.2,0.3,0.3,0.5,0.5c0.2,0.2,0.4,0.3,0.6,0.4c0.3,0.2,0.7,0.4,1,0.6c0.3,0.2,0.7,0.3,1.1,0.4c0.3,0.1,0.6,0.1,0.9,0.2   c0.3,0,0.5,0.1,0.8,0.1c0.2,0,0.4,0,0.6,0c0.2,0,0.4,0,0.6-0.1c0.6-0.1,1.2-0.3,1.8-0.6c0.4-0.2,0.8-0.4,1.1-0.7   c0.2-0.2,0.4-0.4,0.6-0.6c0.1-0.1,0.3-0.3,0.4-0.4c0.2-0.2,0.3-0.4,0.5-0.6c0.2-0.3,0.4-0.7,0.6-1.1c0.1-0.2,0.2-0.4,0.2-0.6   c0.1-0.3,0.2-0.6,0.2-0.9c0.1-0.3,0.1-0.6,0.1-0.8C120.2,301.4,120.2,301.1,120.2,300.9z"
       id="path58" /><path

       d="M120.2,300.9c0,0.2,0,0.4,0,0.6c0,0.3-0.1,0.6-0.1,0.8c-0.1,0.3-0.1,0.6-0.2,0.9c-0.1,0.2-0.1,0.4-0.2,0.6   c-0.2,0.4-0.4,0.7-0.6,1.1c-0.2,0.2-0.3,0.4-0.5,0.6c-0.1,0.1-0.2,0.3-0.4,0.4c-0.2,0.2-0.4,0.4-0.6,0.6c-0.4,0.3-0.7,0.5-1.1,0.7   c-0.6,0.3-1.2,0.5-1.8,0.6c-0.2,0-0.4,0.1-0.6,0.1c-0.2,0-0.4,0-0.6,0c-0.3,0-0.5,0-0.8-0.1c-0.3,0-0.6-0.1-0.9-0.2   c-0.4-0.1-0.7-0.2-1.1-0.4c-0.4-0.2-0.7-0.4-1-0.6c-0.2-0.1-0.4-0.3-0.6-0.4c-0.2-0.1-0.3-0.3-0.5-0.5c-0.3-0.4-0.6-0.7-0.9-1.1   c-0.2-0.2-0.3-0.5-0.4-0.8c-0.2-0.5-0.4-1-0.5-1.5c-0.1-0.2-0.1-0.5-0.1-0.7c0-0.1,0-0.2,0-0.3c0-0.2,0-0.5,0-0.7   c0-0.2,0-0.4,0.1-0.6c0-0.2,0.1-0.5,0.1-0.7c0.1-0.4,0.2-0.9,0.4-1.3c0.1-0.2,0.2-0.4,0.2-0.5c0.2-0.4,0.5-0.8,0.7-1.1   c0.2-0.3,0.5-0.6,0.8-0.8c0.2-0.2,0.4-0.4,0.7-0.5c0.3-0.2,0.6-0.4,0.8-0.5c0.3-0.2,0.6-0.3,1-0.4c0.2-0.1,0.4-0.1,0.7-0.2   c0.2,0,0.5-0.1,0.7-0.1c0.3,0,0.6,0,0.8,0c0.3,0,0.6,0,0.9,0.1c0.4,0.1,0.7,0.1,1.1,0.3c0.4,0.1,0.8,0.3,1.2,0.5   c0.3,0.2,0.6,0.4,0.9,0.6c0.3,0.2,0.6,0.5,0.8,0.8c0.3,0.4,0.6,0.8,0.9,1.2c0.2,0.3,0.4,0.7,0.5,1c0.2,0.4,0.3,0.9,0.4,1.3   c0,0.2,0.1,0.5,0.1,0.7C120.2,300.6,120.2,300.8,120.2,300.9z M113.3,305.5c0.2,0,0.4,0,0.6-0.1c0.9-0.2,1.7-0.5,2.4-1.2   c1.1-1,1.5-2.3,1.5-3.8c0-0.7-0.2-1.3-0.5-1.8c-0.8-1.4-2-2.2-3.6-2.4c-0.7-0.1-1.3,0-2,0.3c-1.6,0.6-2.8,2.1-3,4   c-0.1,0.8,0.1,1.6,0.5,2.4C109.9,304.5,111.5,305.5,113.3,305.5z"
       id="path60" /><path
       class="icono_relleno"
       d="M113.3,305.5c-1.8,0-3.4-1-4.2-2.6c-0.4-0.8-0.5-1.6-0.5-2.4c0.1-1.9,1.3-3.4,3-4c0.6-0.2,1.3-0.3,2-0.3   c1.6,0.2,2.8,1,3.6,2.4c0.3,0.6,0.5,1.2,0.5,1.8c0.1,1.5-0.4,2.7-1.5,3.8c-0.7,0.6-1.5,1-2.4,1.2   C113.7,305.5,113.5,305.5,113.3,305.5z"
       id="path62" /></g><g
     id="termales_05" class="icono"><path
       d="M95,235.6c-0.3-0.4-0.6-0.7-1-1.1c-0.6-0.7-1.2-1.3-1.7-2.1c-0.8-1.1-1.7-2.2-2.5-3.3c-0.7-1-1.4-2-2-3.1   c-0.6-1-1.1-2-1.4-3c-0.3-0.7-0.4-1.5-0.5-2.2c-0.1-0.4-0.1-0.7-0.1-1.1c0-0.3,0-0.5,0-0.8c0-2.4,0.8-4.4,2.4-6.2   c1.3-1.4,2.8-2.3,4.6-2.7c0.8-0.2,1.6-0.3,2.4-0.3c1.7,0,3.4,0.5,4.8,1.4c0.8,0.5,1.4,1,2,1.7c0.3,0.3,0.6,0.6,0.8,1   c0.7,0.9,1.2,1.9,1.4,3c0.1,0.4,0.2,0.9,0.2,1.3c0.1,1.1-0.1,2.2-0.4,3.3c-0.3,1.1-0.7,2.2-1.2,3.2c-0.6,1.2-1.2,2.3-1.9,3.4   c-0.9,1.3-1.8,2.6-2.7,3.8c-0.4,0.5-0.7,1-1.1,1.4c-0.2,0.3-0.5,0.6-0.7,0.8C95.9,234.6,95.5,235,95,235.6   C95,235.5,95,235.6,95,235.6z M101.9,219.4c0-0.2,0-0.3,0-0.5c0-0.3,0-0.5-0.1-0.7c-0.1-0.4-0.2-0.9-0.4-1.3   c-0.1-0.4-0.3-0.7-0.5-1c-0.2-0.4-0.5-0.8-0.9-1.2c-0.2-0.3-0.5-0.5-0.8-0.8c-0.3-0.2-0.6-0.4-0.9-0.6c-0.4-0.2-0.8-0.4-1.2-0.5   c-0.4-0.1-0.7-0.2-1.1-0.3c-0.3,0-0.6-0.1-0.9-0.1c-0.3,0-0.6,0-0.8,0c-0.2,0-0.5,0.1-0.7,0.1c-0.2,0-0.4,0.1-0.7,0.2   c-0.3,0.1-0.7,0.2-1,0.4c-0.3,0.2-0.6,0.3-0.8,0.5c-0.2,0.2-0.4,0.3-0.7,0.5c-0.3,0.3-0.5,0.5-0.8,0.8c-0.3,0.4-0.5,0.7-0.7,1.1   c-0.1,0.2-0.2,0.3-0.2,0.5c-0.2,0.4-0.3,0.8-0.4,1.3c-0.1,0.2-0.1,0.5-0.1,0.7c0,0.2-0.1,0.4-0.1,0.6c0,0.2,0,0.5,0,0.7   c0,0.1,0,0.2,0,0.3c0,0.2,0.1,0.5,0.1,0.7c0.1,0.5,0.3,1,0.5,1.5c0.1,0.3,0.3,0.5,0.4,0.8c0.3,0.4,0.6,0.8,0.9,1.1   c0.2,0.2,0.3,0.3,0.5,0.5c0.2,0.2,0.4,0.3,0.6,0.4c0.3,0.2,0.7,0.4,1,0.6c0.3,0.2,0.7,0.3,1.1,0.4c0.3,0.1,0.6,0.1,0.9,0.2   c0.3,0,0.5,0.1,0.8,0.1c0.2,0,0.4,0,0.6,0c0.2,0,0.4,0,0.6-0.1c0.6-0.1,1.2-0.3,1.8-0.6c0.4-0.2,0.8-0.4,1.1-0.7   c0.2-0.2,0.4-0.4,0.6-0.6c0.1-0.1,0.3-0.3,0.4-0.4c0.2-0.2,0.3-0.4,0.5-0.6c0.2-0.3,0.4-0.7,0.6-1.1c0.1-0.2,0.2-0.4,0.2-0.6   c0.1-0.3,0.2-0.6,0.2-0.9c0.1-0.3,0.1-0.6,0.1-0.8C101.9,219.8,101.9,219.6,101.9,219.4z"
       id="path66" /><path

       d="M101.9,219.4c0,0.2,0,0.4,0,0.6c0,0.3-0.1,0.6-0.1,0.8c-0.1,0.3-0.1,0.6-0.2,0.9c-0.1,0.2-0.1,0.4-0.2,0.6   c-0.2,0.4-0.4,0.7-0.6,1.1c-0.2,0.2-0.3,0.4-0.5,0.6c-0.1,0.1-0.2,0.3-0.4,0.4c-0.2,0.2-0.4,0.4-0.6,0.6c-0.4,0.3-0.7,0.5-1.1,0.7   c-0.6,0.3-1.2,0.5-1.8,0.6c-0.2,0-0.4,0.1-0.6,0.1c-0.2,0-0.4,0-0.6,0c-0.3,0-0.5,0-0.8-0.1c-0.3,0-0.6-0.1-0.9-0.2   c-0.4-0.1-0.7-0.2-1.1-0.4c-0.4-0.2-0.7-0.4-1-0.6c-0.2-0.1-0.4-0.3-0.6-0.4c-0.2-0.1-0.3-0.3-0.5-0.5c-0.3-0.4-0.6-0.7-0.9-1.1   c-0.2-0.2-0.3-0.5-0.4-0.8c-0.2-0.5-0.4-1-0.5-1.5c-0.1-0.2-0.1-0.5-0.1-0.7c0-0.1,0-0.2,0-0.3c0-0.2,0-0.5,0-0.7   c0-0.2,0-0.4,0.1-0.6c0-0.2,0.1-0.5,0.1-0.7c0.1-0.4,0.2-0.9,0.4-1.3c0.1-0.2,0.2-0.4,0.2-0.5c0.2-0.4,0.5-0.8,0.7-1.1   c0.2-0.3,0.5-0.6,0.8-0.8c0.2-0.2,0.4-0.4,0.7-0.5c0.3-0.2,0.6-0.4,0.8-0.5c0.3-0.2,0.6-0.3,1-0.4c0.2-0.1,0.4-0.1,0.7-0.2   c0.2,0,0.5-0.1,0.7-0.1c0.3,0,0.6,0,0.8,0c0.3,0,0.6,0,0.9,0.1c0.4,0.1,0.7,0.1,1.1,0.3c0.4,0.1,0.8,0.3,1.2,0.5   c0.3,0.2,0.6,0.4,0.9,0.6c0.3,0.2,0.6,0.5,0.8,0.8c0.3,0.4,0.6,0.8,0.9,1.2c0.2,0.3,0.4,0.7,0.5,1c0.2,0.4,0.3,0.9,0.4,1.3   c0,0.2,0.1,0.5,0.1,0.7C101.9,219,101.9,219.2,101.9,219.4z M95,223.9c0.2,0,0.4,0,0.6-0.1c0.9-0.2,1.7-0.5,2.4-1.2   c1.1-1,1.5-2.3,1.5-3.8c0-0.7-0.2-1.3-0.5-1.8c-0.8-1.4-2-2.2-3.6-2.4c-0.7-0.1-1.3,0-2,0.3c-1.6,0.6-2.8,2.1-3,4   c-0.1,0.8,0.1,1.6,0.5,2.4C91.6,222.9,93.2,223.9,95,223.9z"
       id="path68" /><path
       class="icono_relleno"
       d="M95,223.9c-1.8,0-3.4-1-4.2-2.6c-0.4-0.8-0.5-1.6-0.5-2.4c0.1-1.9,1.3-3.4,3-4c0.6-0.2,1.3-0.3,2-0.3   c1.6,0.2,2.8,1,3.6,2.4c0.3,0.6,0.5,1.2,0.5,1.8c0.1,1.5-0.4,2.7-1.5,3.8c-0.7,0.6-1.5,1-2.4,1.2C95.4,223.9,95.2,223.9,95,223.9z"
       id="path70" /></g><g
     id="termales_02" class="icono"><path
       d="M147.9,85.9c-0.3-0.4-0.6-0.7-1-1.1c-0.6-0.7-1.2-1.3-1.7-2.1c-0.8-1.1-1.7-2.2-2.5-3.3c-0.7-1-1.4-2-2-3.1   c-0.6-1-1.1-2-1.4-3c-0.3-0.7-0.4-1.5-0.5-2.2c-0.1-0.4-0.1-0.7-0.1-1.1c0-0.3,0-0.5,0-0.8c0-2.4,0.8-4.4,2.4-6.2   c1.3-1.4,2.8-2.3,4.6-2.7c0.8-0.2,1.6-0.3,2.4-0.3c1.7,0,3.4,0.5,4.8,1.4c0.8,0.5,1.4,1,2,1.7c0.3,0.3,0.6,0.6,0.8,1   c0.7,0.9,1.2,1.9,1.4,3c0.1,0.4,0.2,0.9,0.2,1.3c0.1,1.1-0.1,2.2-0.4,3.3c-0.3,1.1-0.7,2.2-1.2,3.2c-0.6,1.2-1.2,2.3-1.9,3.4   c-0.9,1.3-1.8,2.6-2.7,3.8c-0.4,0.5-0.7,1-1.1,1.4c-0.2,0.3-0.5,0.6-0.7,0.8C148.8,84.9,148.4,85.3,147.9,85.9   C148,85.8,148,85.9,147.9,85.9z M154.8,69.7c0-0.2,0-0.3,0-0.5c0-0.3,0-0.5-0.1-0.7c-0.1-0.4-0.2-0.9-0.4-1.3   c-0.1-0.4-0.3-0.7-0.5-1c-0.2-0.4-0.5-0.8-0.9-1.2c-0.2-0.3-0.5-0.5-0.8-0.8c-0.3-0.2-0.6-0.4-0.9-0.6c-0.4-0.2-0.8-0.4-1.2-0.5   c-0.4-0.1-0.7-0.2-1.1-0.3c-0.3,0-0.6-0.1-0.9-0.1c-0.3,0-0.6,0-0.8,0c-0.2,0-0.5,0.1-0.7,0.1c-0.2,0-0.4,0.1-0.7,0.2   c-0.3,0.1-0.7,0.2-1,0.4c-0.3,0.2-0.6,0.3-0.8,0.5c-0.2,0.2-0.4,0.3-0.7,0.5c-0.3,0.3-0.5,0.5-0.8,0.8c-0.3,0.4-0.5,0.7-0.7,1.1   c-0.1,0.2-0.2,0.3-0.2,0.5c-0.2,0.4-0.3,0.8-0.4,1.3c-0.1,0.2-0.1,0.5-0.1,0.7c0,0.2-0.1,0.4-0.1,0.6c0,0.2,0,0.5,0,0.7   c0,0.1,0,0.2,0,0.3c0,0.2,0.1,0.5,0.1,0.7c0.1,0.5,0.3,1,0.5,1.5c0.1,0.3,0.3,0.5,0.4,0.8c0.3,0.4,0.6,0.8,0.9,1.1   c0.2,0.2,0.3,0.3,0.5,0.5c0.2,0.2,0.4,0.3,0.6,0.4c0.3,0.2,0.7,0.4,1,0.6c0.3,0.2,0.7,0.3,1.1,0.4c0.3,0.1,0.6,0.1,0.9,0.2   c0.3,0,0.5,0.1,0.8,0.1c0.2,0,0.4,0,0.6,0c0.2,0,0.4,0,0.6-0.1c0.6-0.1,1.2-0.3,1.8-0.6c0.4-0.2,0.8-0.4,1.1-0.7   c0.2-0.2,0.4-0.4,0.6-0.6c0.1-0.1,0.3-0.3,0.4-0.4c0.2-0.2,0.3-0.4,0.5-0.7c0.2-0.3,0.4-0.7,0.6-1.1c0.1-0.2,0.2-0.4,0.2-0.6   c0.1-0.3,0.2-0.6,0.2-0.9c0.1-0.3,0.1-0.6,0.1-0.8C154.8,70.1,154.8,69.9,154.8,69.7z"
       id="path74" /><path

       d="M154.8,69.7c0,0.2,0,0.4,0,0.6c0,0.3-0.1,0.6-0.1,0.8c-0.1,0.3-0.1,0.6-0.2,0.9c-0.1,0.2-0.1,0.4-0.2,0.6   c-0.2,0.4-0.4,0.7-0.6,1.1c-0.2,0.2-0.3,0.4-0.5,0.7c-0.1,0.1-0.2,0.3-0.4,0.4c-0.2,0.2-0.4,0.4-0.6,0.6c-0.4,0.3-0.7,0.5-1.1,0.7   c-0.6,0.3-1.2,0.5-1.8,0.6c-0.2,0-0.4,0.1-0.6,0.1c-0.2,0-0.4,0-0.6,0c-0.3,0-0.5,0-0.8-0.1c-0.3,0-0.6-0.1-0.9-0.2   c-0.4-0.1-0.7-0.2-1.1-0.4c-0.4-0.2-0.7-0.4-1-0.6c-0.2-0.1-0.4-0.3-0.6-0.4c-0.2-0.1-0.3-0.3-0.5-0.5c-0.3-0.4-0.6-0.7-0.9-1.1   c-0.2-0.2-0.3-0.5-0.4-0.8c-0.2-0.5-0.4-1-0.5-1.5c-0.1-0.2-0.1-0.5-0.1-0.7c0-0.1,0-0.2,0-0.3c0-0.2,0-0.5,0-0.7   c0-0.2,0-0.4,0.1-0.6c0-0.2,0.1-0.5,0.1-0.7c0.1-0.4,0.2-0.9,0.4-1.3c0.1-0.2,0.2-0.4,0.2-0.5c0.2-0.4,0.5-0.8,0.7-1.1   c0.2-0.3,0.5-0.6,0.8-0.8c0.2-0.2,0.4-0.4,0.7-0.5c0.3-0.2,0.6-0.4,0.8-0.5c0.3-0.2,0.6-0.3,1-0.4c0.2-0.1,0.4-0.1,0.7-0.2   c0.2,0,0.5-0.1,0.7-0.1c0.3,0,0.6,0,0.8,0c0.3,0,0.6,0,0.9,0.1c0.4,0.1,0.7,0.1,1.1,0.3c0.4,0.1,0.8,0.3,1.2,0.5   c0.3,0.2,0.6,0.4,0.9,0.6c0.3,0.2,0.6,0.5,0.8,0.8c0.3,0.4,0.6,0.8,0.9,1.2c0.2,0.3,0.4,0.7,0.5,1c0.2,0.4,0.3,0.9,0.4,1.3   c0,0.2,0.1,0.5,0.1,0.7C154.8,69.3,154.8,69.5,154.8,69.7z M147.9,74.2c0.2,0,0.4,0,0.6-0.1c0.9-0.2,1.7-0.5,2.4-1.2   c1.1-1,1.5-2.3,1.5-3.8c0-0.7-0.2-1.3-0.5-1.8c-0.8-1.4-2-2.2-3.6-2.4c-0.7-0.1-1.3,0-2,0.3c-1.6,0.6-2.8,2.1-3,4   c-0.1,0.8,0.1,1.6,0.5,2.4C144.5,73.2,146.1,74.2,147.9,74.2z"
       id="path76" /><path
       class="icono_relleno"
       d="M147.9,74.2c-1.8,0-3.4-1-4.2-2.6c-0.4-0.8-0.5-1.6-0.5-2.4c0.1-1.9,1.3-3.4,3-4c0.6-0.2,1.3-0.3,2-0.3   c1.6,0.2,2.8,1,3.6,2.4c0.3,0.6,0.5,1.2,0.5,1.8c0.1,1.5-0.4,2.7-1.5,3.8c-0.7,0.6-1.5,1-2.4,1.2C148.3,74.2,148.1,74.2,147.9,74.2   z"
       id="path78" /></g><g
     id="termales_11" class="icono"><path
       d="M43.7,353.8c-0.3-0.4-0.6-0.7-1-1.1c-0.6-0.7-1.2-1.3-1.7-2.1c-0.8-1.1-1.7-2.2-2.5-3.3c-0.7-1-1.4-2-2-3.1   c-0.6-1-1.1-2-1.4-3c-0.3-0.7-0.4-1.5-0.5-2.2c-0.1-0.4-0.1-0.7-0.1-1.1c0-0.3,0-0.5,0-0.8c0-2.4,0.8-4.4,2.4-6.2   c1.3-1.4,2.8-2.3,4.6-2.7c0.8-0.2,1.6-0.3,2.4-0.3c1.7,0,3.4,0.5,4.8,1.4c0.8,0.5,1.4,1,2,1.7c0.3,0.3,0.6,0.6,0.8,1   c0.7,0.9,1.2,1.9,1.4,3c0.1,0.4,0.2,0.9,0.2,1.3c0.1,1.1-0.1,2.2-0.4,3.3c-0.3,1.1-0.7,2.2-1.2,3.2c-0.6,1.2-1.2,2.3-1.9,3.4   c-0.9,1.3-1.8,2.6-2.7,3.8c-0.4,0.5-0.7,1-1.1,1.4c-0.2,0.3-0.5,0.6-0.7,0.8C44.6,352.8,44.2,353.3,43.7,353.8   C43.8,353.8,43.8,353.8,43.7,353.8z M50.6,337.6c0-0.2,0-0.3,0-0.5c0-0.3,0-0.5-0.1-0.7c-0.1-0.4-0.2-0.9-0.4-1.3   c-0.1-0.4-0.3-0.7-0.5-1c-0.2-0.4-0.5-0.8-0.9-1.2c-0.2-0.3-0.5-0.5-0.8-0.8c-0.3-0.2-0.6-0.4-0.9-0.6c-0.4-0.2-0.8-0.4-1.2-0.5   c-0.4-0.1-0.7-0.2-1.1-0.3c-0.3,0-0.6-0.1-0.9-0.1c-0.3,0-0.6,0-0.8,0c-0.2,0-0.5,0.1-0.7,0.1c-0.2,0-0.4,0.1-0.7,0.2   c-0.3,0.1-0.7,0.2-1,0.4c-0.3,0.2-0.6,0.3-0.8,0.5c-0.2,0.2-0.4,0.3-0.7,0.5c-0.3,0.3-0.5,0.5-0.8,0.8c-0.3,0.4-0.5,0.7-0.7,1.1   c-0.1,0.2-0.2,0.3-0.2,0.5c-0.2,0.4-0.3,0.8-0.4,1.3c-0.1,0.2-0.1,0.5-0.1,0.7c0,0.2-0.1,0.4-0.1,0.6c0,0.2,0,0.5,0,0.7   c0,0.1,0,0.2,0,0.3c0,0.2,0.1,0.5,0.1,0.7c0.1,0.5,0.3,1,0.5,1.5c0.1,0.3,0.3,0.5,0.4,0.8c0.3,0.4,0.6,0.8,0.9,1.1   c0.2,0.2,0.3,0.3,0.5,0.5c0.2,0.2,0.4,0.3,0.6,0.4c0.3,0.2,0.7,0.4,1,0.6c0.3,0.2,0.7,0.3,1.1,0.4c0.3,0.1,0.6,0.1,0.9,0.2   c0.3,0,0.5,0.1,0.8,0.1c0.2,0,0.4,0,0.6,0c0.2,0,0.4,0,0.6-0.1c0.6-0.1,1.2-0.3,1.8-0.6c0.4-0.2,0.8-0.4,1.1-0.7   c0.2-0.2,0.4-0.4,0.6-0.6c0.1-0.1,0.3-0.3,0.4-0.4c0.2-0.2,0.3-0.4,0.5-0.7c0.2-0.3,0.4-0.7,0.6-1.1c0.1-0.2,0.2-0.4,0.2-0.6   c0.1-0.3,0.2-0.6,0.2-0.9c0.1-0.3,0.1-0.6,0.1-0.8C50.6,338,50.6,337.8,50.6,337.6z"
       id="path82" /><path

       d="M50.6,337.6c0,0.2,0,0.4,0,0.6c0,0.3-0.1,0.6-0.1,0.8c-0.1,0.3-0.1,0.6-0.2,0.9c-0.1,0.2-0.1,0.4-0.2,0.6   c-0.2,0.4-0.4,0.7-0.6,1.1c-0.2,0.2-0.3,0.4-0.5,0.7c-0.1,0.1-0.2,0.3-0.4,0.4c-0.2,0.2-0.4,0.4-0.6,0.6c-0.4,0.3-0.7,0.5-1.1,0.7   c-0.6,0.3-1.2,0.5-1.8,0.6c-0.2,0-0.4,0.1-0.6,0.1c-0.2,0-0.4,0-0.6,0c-0.3,0-0.5,0-0.8-0.1c-0.3,0-0.6-0.1-0.9-0.2   c-0.4-0.1-0.7-0.2-1.1-0.4c-0.4-0.2-0.7-0.4-1-0.6c-0.2-0.1-0.4-0.3-0.6-0.4c-0.2-0.1-0.3-0.3-0.5-0.5c-0.3-0.4-0.6-0.7-0.9-1.1   c-0.2-0.2-0.3-0.5-0.4-0.8c-0.2-0.5-0.4-1-0.5-1.5c-0.1-0.2-0.1-0.5-0.1-0.7c0-0.1,0-0.2,0-0.3c0-0.2,0-0.5,0-0.7   c0-0.2,0-0.4,0.1-0.6c0-0.2,0.1-0.5,0.1-0.7c0.1-0.4,0.2-0.9,0.4-1.3c0.1-0.2,0.2-0.4,0.2-0.5c0.2-0.4,0.5-0.8,0.7-1.1   c0.2-0.3,0.5-0.6,0.8-0.8c0.2-0.2,0.4-0.4,0.7-0.5c0.3-0.2,0.6-0.4,0.8-0.5c0.3-0.2,0.6-0.3,1-0.4c0.2-0.1,0.4-0.1,0.7-0.2   c0.2,0,0.5-0.1,0.7-0.1c0.3,0,0.6,0,0.8,0c0.3,0,0.6,0,0.9,0.1c0.4,0.1,0.7,0.1,1.1,0.3c0.4,0.1,0.8,0.3,1.2,0.5   c0.3,0.2,0.6,0.4,0.9,0.6c0.3,0.2,0.6,0.5,0.8,0.8c0.3,0.4,0.6,0.8,0.9,1.2c0.2,0.3,0.4,0.7,0.5,1c0.2,0.4,0.3,0.9,0.4,1.3   c0,0.2,0.1,0.5,0.1,0.7C50.6,337.3,50.6,337.4,50.6,337.6z M43.7,342.2c0.2,0,0.4,0,0.6-0.1c0.9-0.2,1.7-0.5,2.4-1.2   c1.1-1,1.5-2.3,1.5-3.8c0-0.7-0.2-1.3-0.5-1.8c-0.8-1.4-2-2.2-3.6-2.4c-0.7-0.1-1.3,0-2,0.3c-1.6,0.6-2.8,2.1-3,4   c-0.1,0.8,0.1,1.6,0.5,2.4C40.3,341.2,41.9,342.2,43.7,342.2z"
       id="path84" /><path
       class="icono_relleno"
       d="M43.7,342.2c-1.8,0-3.4-1-4.2-2.6c-0.4-0.8-0.5-1.6-0.5-2.4c0.1-1.9,1.3-3.4,3-4c0.6-0.2,1.3-0.3,2-0.3   c1.6,0.2,2.8,1,3.6,2.4c0.3,0.6,0.5,1.2,0.5,1.8c0.1,1.5-0.4,2.7-1.5,3.8c-0.7,0.6-1.5,1-2.4,1.2C44.1,342.2,43.9,342.2,43.7,342.2   z"
       id="path86" /></g><g
     id="termales_04" class="icono"><path
       d="M193.7,143.3c-0.3-0.4-0.6-0.7-1-1.1c-0.6-0.7-1.2-1.3-1.7-2.1c-0.8-1.1-1.7-2.2-2.5-3.3c-0.7-1-1.4-2-2-3.1   c-0.6-1-1.1-2-1.4-3c-0.3-0.7-0.4-1.5-0.5-2.2c-0.1-0.4-0.1-0.7-0.1-1.1c0-0.3,0-0.5,0-0.8c0-2.4,0.8-4.4,2.4-6.2   c1.3-1.4,2.8-2.3,4.6-2.7c0.8-0.2,1.6-0.3,2.4-0.3c1.7,0,3.4,0.5,4.8,1.4c0.8,0.5,1.4,1,2,1.7c0.3,0.3,0.6,0.6,0.8,1   c0.7,0.9,1.2,1.9,1.4,3c0.1,0.4,0.2,0.9,0.2,1.3c0.1,1.1-0.1,2.2-0.4,3.3c-0.3,1.1-0.7,2.2-1.2,3.2c-0.6,1.2-1.2,2.3-1.9,3.4   c-0.9,1.3-1.8,2.6-2.7,3.8c-0.4,0.5-0.7,1-1.1,1.4c-0.2,0.3-0.5,0.6-0.7,0.8C194.6,142.3,194.2,142.8,193.7,143.3   C193.7,143.3,193.7,143.3,193.7,143.3z M200.6,127.1c0-0.2,0-0.3,0-0.5c0-0.3,0-0.5-0.1-0.7c-0.1-0.4-0.2-0.9-0.4-1.3   c-0.1-0.4-0.3-0.7-0.5-1c-0.2-0.4-0.5-0.8-0.9-1.2c-0.2-0.3-0.5-0.5-0.8-0.8c-0.3-0.2-0.6-0.4-0.9-0.6c-0.4-0.2-0.8-0.4-1.2-0.5   c-0.4-0.1-0.7-0.2-1.1-0.3c-0.3,0-0.6-0.1-0.9-0.1c-0.3,0-0.6,0-0.8,0c-0.2,0-0.5,0.1-0.7,0.1c-0.2,0-0.4,0.1-0.7,0.2   c-0.3,0.1-0.7,0.2-1,0.4c-0.3,0.2-0.6,0.3-0.8,0.5c-0.2,0.2-0.4,0.3-0.7,0.5c-0.3,0.3-0.5,0.5-0.8,0.8c-0.3,0.4-0.5,0.7-0.7,1.1   c-0.1,0.2-0.2,0.3-0.2,0.5c-0.2,0.4-0.3,0.8-0.4,1.3c-0.1,0.2-0.1,0.5-0.1,0.7c0,0.2-0.1,0.4-0.1,0.6c0,0.2,0,0.5,0,0.7   c0,0.1,0,0.2,0,0.3c0,0.2,0.1,0.5,0.1,0.7c0.1,0.5,0.3,1,0.5,1.5c0.1,0.3,0.3,0.5,0.4,0.8c0.3,0.4,0.6,0.8,0.9,1.1   c0.2,0.2,0.3,0.3,0.5,0.5c0.2,0.2,0.4,0.3,0.6,0.4c0.3,0.2,0.7,0.4,1,0.6c0.3,0.2,0.7,0.3,1.1,0.4c0.3,0.1,0.6,0.1,0.9,0.2   c0.3,0,0.5,0.1,0.8,0.1c0.2,0,0.4,0,0.6,0c0.2,0,0.4,0,0.6-0.1c0.6-0.1,1.2-0.3,1.8-0.6c0.4-0.2,0.8-0.4,1.1-0.7   c0.2-0.2,0.4-0.4,0.6-0.6c0.1-0.1,0.3-0.3,0.4-0.4c0.2-0.2,0.3-0.4,0.5-0.6c0.2-0.3,0.4-0.7,0.6-1.1c0.1-0.2,0.2-0.4,0.2-0.6   c0.1-0.3,0.2-0.6,0.2-0.9c0.1-0.3,0.1-0.6,0.1-0.8C200.6,127.5,200.6,127.3,200.6,127.1z"
       id="path90" /><path

       d="M200.6,127.1c0,0.2,0,0.4,0,0.6c0,0.3-0.1,0.6-0.1,0.8c-0.1,0.3-0.1,0.6-0.2,0.9c-0.1,0.2-0.1,0.4-0.2,0.6   c-0.2,0.4-0.4,0.7-0.6,1.1c-0.2,0.2-0.3,0.4-0.5,0.6c-0.1,0.1-0.2,0.3-0.4,0.4c-0.2,0.2-0.4,0.4-0.6,0.6c-0.4,0.3-0.7,0.5-1.1,0.7   c-0.6,0.3-1.2,0.5-1.8,0.6c-0.2,0-0.4,0.1-0.6,0.1c-0.2,0-0.4,0-0.6,0c-0.3,0-0.5,0-0.8-0.1c-0.3,0-0.6-0.1-0.9-0.2   c-0.4-0.1-0.7-0.2-1.1-0.4c-0.4-0.2-0.7-0.4-1-0.6c-0.2-0.1-0.4-0.3-0.6-0.4c-0.2-0.1-0.3-0.3-0.5-0.5c-0.3-0.4-0.6-0.7-0.9-1.1   c-0.2-0.2-0.3-0.5-0.4-0.8c-0.2-0.5-0.4-1-0.5-1.5c-0.1-0.2-0.1-0.5-0.1-0.7c0-0.1,0-0.2,0-0.3c0-0.2,0-0.5,0-0.7   c0-0.2,0-0.4,0.1-0.6c0-0.2,0.1-0.5,0.1-0.7c0.1-0.4,0.2-0.9,0.4-1.3c0.1-0.2,0.2-0.4,0.2-0.5c0.2-0.4,0.5-0.8,0.7-1.1   c0.2-0.3,0.5-0.6,0.8-0.8c0.2-0.2,0.4-0.4,0.7-0.5c0.3-0.2,0.6-0.4,0.8-0.5c0.3-0.2,0.6-0.3,1-0.4c0.2-0.1,0.4-0.1,0.7-0.2   c0.2,0,0.5-0.1,0.7-0.1c0.3,0,0.6,0,0.8,0c0.3,0,0.6,0,0.9,0.1c0.4,0.1,0.7,0.1,1.1,0.3c0.4,0.1,0.8,0.3,1.2,0.5   c0.3,0.2,0.6,0.4,0.9,0.6c0.3,0.2,0.6,0.5,0.8,0.8c0.3,0.4,0.6,0.8,0.9,1.2c0.2,0.3,0.4,0.7,0.5,1c0.2,0.4,0.3,0.9,0.4,1.3   c0,0.2,0.1,0.5,0.1,0.7C200.6,126.8,200.6,126.9,200.6,127.1z M193.7,131.7c0.2,0,0.4,0,0.6-0.1c0.9-0.2,1.7-0.5,2.4-1.2   c1.1-1,1.5-2.3,1.5-3.8c0-0.7-0.2-1.3-0.5-1.8c-0.8-1.4-2-2.2-3.6-2.4c-0.7-0.1-1.3,0-2,0.3c-1.6,0.6-2.8,2.1-3,4   c-0.1,0.8,0.1,1.6,0.5,2.4C190.3,130.7,191.9,131.7,193.7,131.7z"
       id="path92" /><path
       class="icono_relleno"
       d="M193.7,131.7c-1.8,0-3.4-1-4.2-2.6c-0.4-0.8-0.5-1.6-0.5-2.4c0.1-1.9,1.3-3.4,3-4c0.6-0.2,1.3-0.3,2-0.3   c1.6,0.2,2.8,1,3.6,2.4c0.3,0.6,0.5,1.2,0.5,1.8c0.1,1.5-0.4,2.7-1.5,3.8c-0.7,0.6-1.5,1-2.4,1.2   C194.1,131.7,193.9,131.7,193.7,131.7z"
       id="path94" /></g></svg>
